<?xml version="1.0" encoding="utf-8"?>
<!-- Generator: Adobe Illustrator 26.2.1, SVG Export Plug-In . SVG Version: 6.00 Build 0)  -->
<svg version="1.1" id="Capa_1" xmlns="http://www.w3.org/2000/svg" xmlns:xlink="http://www.w3.org/1999/xlink" x="0px" y="0px"
	 viewBox="0 0 102 102" style="enable-background:new 0 0 102 102;" xml:space="preserve">
<style type="text/css">
	.st0{fill:url(#SVGID_1_);}
	.st1{fill:none;}
	.st2{fill:#B58418;}
	.st3{fill:#FFFFFF;}
</style>
<radialGradient id="SVGID_1_" cx="51" cy="51" r="93.6263" gradientUnits="userSpaceOnUse">
	<stop  offset="0" style="stop-color:#005794"/>
	<stop  offset="1" style="stop-color:#102040"/>
</radialGradient>
<rect y="0" class="st0" width="102" height="102"/>
<rect y="0" class="st1" width="102" height="102"/>
<g>
	<path class="st2" d="M62.6,49.6c1.9-2.2,0.1-4.4-3.8-4.8c-4-0.4-8.7,1.1-10.5,3.3c-1.9,2.2-0.1,4.4,3.8,4.8
		C56,53.3,60.7,51.8,62.6,49.6"/>
	<polygon class="st2" points="12.4,64.8 15.3,67.1 45,53.1 42.9,51.9 	"/>
	<polygon class="st2" points="46.4,53.9 48.5,55.2 21.5,70.1 17.6,68.4 	"/>
	<path class="st3" d="M69.8,58.9C63.9,61.7,53,64,43.7,63c-2.6-0.3-4.9-0.7-6.9-1.4l-4.6,2.5c2.6,0.9,20.2,5,41-5L69.8,58.9z"/>
	<path class="st3" d="M74.3,61.5c-8.1,3.9-22.1,6.8-34,5.6c-3.7-0.4-6.9-1.1-9.6-2l-4.6,2.5c3.3,1.2,24.7,7.3,51.5-5.7L74.3,61.5z"
		/>
	<path class="st3" d="M78.9,64.1c-11,5.1-27.4,8.5-42,7c-4.8-0.5-8.9-1.4-12.4-2.7l-3.1,1.7c3.9,1.5,30.6,9,60.8-5.6L78.9,64.1z"/>
	<path class="st3" d="M17.6,62.6l5.2-2.2c-4-4-4.2-9.4,0.3-14.9c8.3-10.1,29.6-16.8,47.4-15c5.9,0.6,10.7,2.1,14.1,4.1l4.9-2.4
		c-4.1-2.4-9.6-4.1-16.5-4.8C52.2,25.4,27.4,33.2,17.7,45C12.3,51.5,12.6,57.9,17.6,62.6"/>
	<path class="st3" d="M24.5,59.7l5.2-2.2c-2.8-3.1-2.8-7.1,0.6-11.2c6.5-7.8,23-13.1,36.9-11.6c4.6,0.5,8.3,1.6,11,3.2l4.9-2.4
		c-3.3-1.9-7.8-3.3-13.4-3.9c-16.9-1.7-36.9,4.6-44.8,14.1C20.6,50.9,20.8,55.9,24.5,59.7"/>
</g>
</svg>
