<?xml version="1.0" encoding="utf-8"?>
<!-- Generator: Adobe Illustrator 22.0.1, SVG Export Plug-In . SVG Version: 6.00 Build 0)  -->
<svg version="1.1" id="Capa_1" xmlns="http://www.w3.org/2000/svg" xmlns:xlink="http://www.w3.org/1999/xlink" x="0px" y="0px"
	 viewBox="0 0 125 125" style="enable-background:new 0 0 125 125;" xml:space="preserve">
<style type="text/css">
	.st0{fill:#FFFFFF;}
</style>
<g>
	<path class="st0" d="M87,60.6V34.4c0-0.1-0.1-0.1-0.1-0.1H36.3c-0.1,0-0.1,0.1-0.1,0.1v26.2c0,0,0,0,0,0.1
		c0.2,9.1,2.8,17.7,7.5,24.7C48.3,92.2,54.6,97,61.5,99c0,0,0.1,0,0.1,0c6.9-1.9,13.3-6.8,17.8-13.6C84.1,78.3,86.7,69.8,87,60.6
		C87,60.6,87,60.6,87,60.6L87,60.6z M85.9,60.4c0,0,0,0.1,0,0.1c-0.4,18-10.4,33.3-24.4,37.4c-13.9-4-23.9-19.4-24.4-37.3
		c0,0,0-0.1,0-0.1V35.3h48.7L85.9,60.4L85.9,60.4z"/>
	<path class="st0" d="M61.5,91.7c0,0,0.1,0,0.1,0c10.8-4,18.6-16.9,18.9-31.3c0-0.1,0-0.2,0-0.3c0,0,0-19,0-19
		c0-0.1-0.1-0.1-0.1-0.1H42.7c-0.1,0-0.1,0.1-0.1,0.1v19c0,0.1,0,0.2,0,0.3C43,74.8,50.7,87.7,61.5,91.7L61.5,91.7z M61.6,90.7
		c-10.2-4-17.6-16.5-17.9-30.3c0-0.1,0-0.2,0-0.3c0,0,0-14.5,0-17.6c0.1,0.2,0.2,0.5,0.3,0.6c0.3,0.4,0.9,1.7,0.9,1.7
		s0.1,0.6-0.1,0.6c-0.2,0.1,0.3,0.4,0.4,0.6c0.1,0.2,0.5,0.9,0.8,0.9c0.3,0.1,0.4-0.3,0.1-0.6c-0.2-0.4-0.6-1.3-0.6-1.3
		s-0.1-0.5-0.3-1c-0.2-0.5-0.4-1.2-0.4-1.2s1.2,0.3,1.3,1c0.1,0.3,0.4,1.9,0.8,2.9c0.2,0.6,0.6,1,0.9,1.5c0.4,0.5,1.2,1.3,2.2,1.6
		c1,0.3,2.2-0.4,2.7,0c0.5,0.4,1.4,1.3,2.1,1.5c0.6,0.2,2.4,0.6,2.7,1.3c0.4,0.7,1.2,0.8,1.7,0.9c0.4,0.1,1.9,0.6,1.9,1.9L60,57.8
		c0,0-0.9,0.9-1,1.8c-0.1,0.9-0.6,1.4,0.3,2.7c0.9,1.3,1.4,2.9,1.5,4c0.1,1.2,1.2,1.3,1.9,1.8c0.7,0.5,0,1-0.4,2.1
		c-0.4,1.1-0.2,3.3-0.6,4.8c-0.4,1.4-0.9,1.9-0.9,3.1s0.1,2.4-0.4,3.4c-0.4,1-0.1,1.9-0.2,3c-0.1,1.1,0.2,2.4,0.9,3.3
		c0.7,0.9,2.4,1.4,2.2-0.1c-0.2-1.4,0.1-3.3,0.9-4.3c0.9-0.9,0.9-0.9,0.9-0.9s-0.1-1.4,0.7-1.9c0.9-0.6,1.4-1,0.9-1.2
		c-0.5-0.2,0-0.7,0.5-0.7c0.5,0,0.7,0.2,1.9-1.2c1.2-1.4,1.5-1.7,2.7-2.3c1.2-0.6,1.6-1.9,2.3-2.7c0.7-0.7,2-1.4,2.8-1.5
		c0.8-0.1,1.2-0.9,1.2-1.9c0-0.9-0.3-1.6,0.4-2.6c0.6-1,0.3-1.2,0.8-1.7C77.6,76.8,70.7,87.1,61.6,90.7L61.6,90.7z M79.5,60.1
		c0,0.1,0,0.2,0,0.3c0,0.6,0,1.1-0.1,1.7c-0.5-0.5-1.4-0.9-1.9-1.4c-0.6-0.6-1.4-1.1-1.7-1.2c-0.3-0.1-0.4-0.4-1.2-0.3
		c-0.8,0.1-1.4,0-1.6-0.8c-0.1-0.8-0.1-1.6-0.9-2c-0.8-0.4-1.3-0.9-1.9-1.4c-0.6-0.4-1.2-1.2-1.4-1.3c-0.2-0.1-1.7,0.1-1.7,0.1
		s-0.9-0.8-2.2-0.5c0,0-0.8-1.2-1.7-0.6c-0.9,0.6-1.6,1.1-2.1,0.4s-1.4-0.4-1.9-0.3c-0.6,0.1-1.1-0.9-1.2-1.4
		c-0.1-0.4,0-1.1-0.2-1.1c-0.2,0-1.1,0.3-1.7-0.1c-0.6-0.4-0.3-0.9-0.1-1.2c0.2-0.4,0.5-1.8,0.4-2.1l-0.6-0.1c0,0-0.8-0.1-0.9,0.4
		c-0.1,0.6-1.2,1.2-1.9,0.9c-0.8-0.2-1.4-0.7-1.7-1.5c-0.3-0.8-0.2-1.3-0.1-1.7c0.1-0.4-0.5-1.2-0.7-1.4c-0.2-0.2-0.2,0.1-0.7-0.6
		c-0.2-0.4-0.6-0.7-0.8-0.9h30.4C79.5,43.7,79.5,60.1,79.5,60.1L79.5,60.1z"/>
	<path class="st0" d="M47.6,13.5c-1-0.5-2.1-0.3-2.5,0.2c-0.3,0.3-0.4,0.4-0.5,0.4c-0.2,0-1.6-0.1-2.2,0.7c-0.3,0.4-0.3,1-0.1,1.6
		c0.9,2.3,1,2.8,1,2.8c0,0,0,0.1,0,0.1c0,0,1.5,1.5,0.9,2.9c-0.7,1.6-0.6,1.9,0.3,2.4c0.7,0.4,1,0.8,1,2.3V27c0,1.1,0,2,0.5,2.5
		c0.3,0.3,0.6,0.4,1.1,0.4c0.3,0,0.6-0.1,0.8-0.4c0.7-0.9,0.5-2.9,0.3-3.8c-0.2-0.8-0.6-2.7,0-3.2c0.7-0.5,1-0.6,1.4-0.2
		c0,0,0.1,0.1,0.1,0c0.3,0,0.9-0.3,0.9-0.9c0-0.3-0.1-0.5-0.1-0.6c0,0,0,0,0,0c0.1,0,0.1,0,0.3,0.1c0.4,0.1,0.8,0,1.1-0.3
		c0.2-0.3,0.3-0.7,0.1-1.1c-0.3-0.7-1.4-2.4-2.1-3.1l-0.2-0.2C49,15.7,49,15.7,49,15.3C49.1,14.6,48.6,14,47.6,13.5L47.6,13.5z
		 M49.6,21.1c0,0.1,0,0.1,0.1,0.2c-0.8-0.3-1.5,0.2-2,0.5c-1,0.8-0.7,2.5-0.4,4.1c0.2,1.1,0.3,2.6-0.1,3c0,0.1-0.1,0.1-0.2,0.1
		c-0.2,0-0.4,0-0.4-0.1c-0.2-0.2-0.2-1.1-0.2-1.9v-0.1c0-1.7-0.4-2.5-1.4-3.1c-0.1-0.1-0.2-0.1-0.2-0.1c0-0.1,0.1-0.3,0.4-1.1
		c0.8-1.7-0.5-3.3-0.9-3.7c-0.1-0.3-0.3-1.1-0.9-2.7c-0.1-0.4-0.2-0.6,0-0.8c0.2-0.3,1.1-0.4,1.5-0.4c0.1,0,0.1,0,0.2,0
		c0.2,0,0.5-0.2,1-0.7c0.1-0.1,0.7-0.3,1.4,0c0.8,0.4,0.9,0.7,0.9,0.9c-0.1,0.8,0.1,1,0.7,1.5c0,0,0.2,0.2,0.2,0.2
		c0.6,0.6,1.6,2.2,1.9,2.9c0,0.1,0,0.1,0,0.1c0,0-0.1,0-0.2,0c-0.4-0.1-0.8-0.2-1.2,0.2C49.3,20.5,49.5,20.9,49.6,21.1L49.6,21.1z"
		/>
	<path class="st0" d="M45.8,16.8c-0.4,0-0.8,0.3-0.8,0.8c0,0.4,0.3,0.8,0.8,0.8c0.4,0,0.8-0.3,0.8-0.8
		C46.6,17.1,46.2,16.8,45.8,16.8L45.8,16.8z"/>
	<path class="st0" d="M37.7,17.2c-0.1,0-3.4,0.9-3.4,3.1c0,2.2,2.1,2.3,2.2,2.3c0.1,0,0.1,0,0.1-0.1c0,0,0-0.1,0-0.2
		c-0.3-0.4-0.4-0.7-0.4-0.9c0.1-0.3,0.4-0.5,0.7-0.7c0.4-0.2,0.8-0.5,0.8-1c-0.1-1,0.3-2.3,0.3-2.3c0,0,0-0.1,0-0.1
		C37.8,17.2,37.8,17.2,37.7,17.2L37.7,17.2z M35.4,21c-0.1-0.2-0.2-0.5-0.2-0.8c0-0.8,0.8-1.4,1.6-1.8c-0.1,0.5-0.1,0.9,0,1.2
		c-0.1,0.1-0.3,0.2-0.3,0.2C36.1,20.1,35.6,20.5,35.4,21L35.4,21z"/>
	<path class="st0" d="M39.5,21c-1.4,0.7-2.3,1.3-2.3,1.3c0,0-0.1,0.1-0.1,0.1c0,0.1,0.1,0.1,0.1,0.1c0.4,0.1,4.3,0.9,4.9,0.8
		c0.4-0.1,1.2-0.4,1.5-1.1c0.3-0.7,0.1-1.6-0.5-2.5c-1.1-2.2-1.8-3.8-1.8-3.8c0-0.1-0.1-0.1-0.2-0.1c0,0-3.6,0.8-3.1,4.2
		c0,0.1,0.1,0.1,0.1,0.1h1.3c0.2,0.1,0.5,0.2,0.5,0.3C40.1,20.5,40.1,20.7,39.5,21L39.5,21z M41,20.4c-0.1-0.7-0.9-1-1.2-1.1
		c-0.1,0-0.1,0-0.2,0H39c0.1-1.4,1.1-2.1,1.8-2.4c0.3,0.6,0.8,1.8,1.5,3.2c0,0,0,0.1,0,0.1c0.3,0.5,0.7,1.2,0.5,1.7
		c-0.2,0.4-0.7,0.6-0.8,0.6c-0.2,0-1.3-0.1-2.7-0.4c0.2-0.1,0.4-0.2,0.6-0.3C40.2,21.6,41.1,21.2,41,20.4L41,20.4z"/>
	<path class="st0" d="M45.6,30.1c0-0.1-0.1-0.2-0.3-0.3l-0.8-0.4c0,0,0,0,0,0c0,0-0.5-0.1-0.9,0.3l-3.8,2.8
		c-0.1,0.1-0.4,0.4-0.4,0.6c0,0.1,0.1,0.2,0.3,0.3c0.6,0.1,2.2,0.3,2.3,0.3c0,0,0.8,0,1.2-0.4c0.3-0.3,2-2.4,2.1-2.4
		C45.4,30.7,45.7,30.4,45.6,30.1L45.6,30.1z M42.7,32.6c0,0-0.3,0.1-0.5,0.1l-1.1-0.1l3-2.2c0,0,0.1,0,0.1-0.1c0,0,0.1-0.1,0.1-0.1
		l0.3,0.1C44,31.1,42.9,32.4,42.7,32.6L42.7,32.6z"/>
	<path class="st0" d="M44.1,33.7c0.6,0.1,1.4,0.2,1.5,0.2c0.1,0,0.6,0.1,1-0.7l1-1.9c0-0.1,0.2-0.3,0.1-0.6c0-0.1-0.1-0.2-0.4-0.3
		c-0.6-0.1-0.7-0.2-0.7-0.2c0,0-0.6-0.2-0.9,0.2c-0.2,0.4-1.8,2.3-1.9,2.3c0,0-0.3,0.4-0.2,0.6C43.7,33.6,43.8,33.7,44.1,33.7
		L44.1,33.7z M45.6,33c-0.1,0-0.4,0-0.8-0.1c0.4-0.5,1.2-1.4,1.5-1.8c0,0,0.1,0,0.3,0.1c-0.2,0.4-0.9,1.6-0.9,1.6
		C45.7,32.9,45.7,33,45.6,33L45.6,33z"/>
	<path class="st0" d="M47.9,33.9h1.2c0.3,0,0.8-0.2,0.8-0.9V31c0,0,0-0.1,0-0.1c0,0-0.2-0.4-0.8-0.3c-0.4,0-0.7,0-0.7,0
		c0,0-0.4,0-0.6,0.5c-0.1,0.4-0.8,1.8-0.8,1.9c0,0-0.2,0.4,0,0.7C47.1,33.8,47.4,33.9,47.9,33.9L47.9,33.9z M49,33
		C49,33,49,33,49,33l-1.1,0c0,0,0,0,0,0c0.2-0.4,0.5-1.2,0.7-1.6c0.1,0,0.3,0,0.4,0V33L49,33z"/>
	<path class="st0" d="M53.5,33.8l1.1-0.1c0,0,0.2,0,0.3-0.2c0.1-0.1,0.1-0.4,0-0.6c-0.3-0.6-1.5-3.2-1.6-3.4c0,0,0,0,0,0
		c0,0-0.3-0.3-0.6-0.2c0,0,0,0,0,0l-0.7,0.4c-0.2,0.1-0.4,0.3-0.2,0.7c0.2,0.5,0.9,2.8,0.9,2.8c0,0,0,0,0,0
		C52.6,33.5,52.8,33.8,53.5,33.8L53.5,33.8z M52.6,30.3c0.3,0.6,0.9,1.8,1.2,2.5c-0.2,0-0.4,0-0.4,0c0,0,0,0,0,0
		C53.2,32.4,52.8,31,52.6,30.3L52.6,30.3L52.6,30.3z"/>
	<path class="st0" d="M50.5,33.9c0.3,0,1.5,0,1.5,0c0,0,0.3,0,0.4-0.2c0.1-0.1,0.1-0.3,0-0.5l-0.9-2.7c0,0,0,0,0,0
		c-0.1-0.2-0.3-0.4-0.7-0.3c-0.3,0.1-0.7,0.2-0.7,0.2c0,0,0,0,0,0c0,0-0.2,0.1-0.2,0.5c0,0.3,0.1,2.4,0.1,2.5
		C50,33.6,50.2,34,50.5,33.9L50.5,33.9z M50.9,33c0-0.7-0.1-1.5-0.1-1.9c0,0,0,0,0,0l0.6,1.9L50.9,33L50.9,33z"/>
	<path class="st0" d="M55.7,33.6c0.4-0.1,1.1-0.2,1.1-0.2c0.1,0,0.4,0,0.6-0.3c0.1-0.2,0.1-0.5-0.1-0.9c-0.5-1-2.4-3.9-2.5-4.1
		c0,0-0.1-0.2-0.3-0.3c-0.1,0-0.3,0-0.4,0.2c0,0-0.7,0.6-0.7,0.6c-0.1,0.1-0.4,0.5-0.2,0.9c0.2,0.5,1.7,3.5,1.7,3.6c0,0,0,0,0,0
		C55,33.3,55.3,33.6,55.7,33.6L55.7,33.6z M54.1,29.3c0.1-0.1,0.2-0.2,0.3-0.2c0.5,0.8,1.7,2.7,2.1,3.5c-0.2,0-0.5,0.1-0.8,0.1
		C55.5,32.2,54.4,29.9,54.1,29.3L54.1,29.3z"/>
	<path class="st0" d="M32.7,64.9C30.8,64,29,64.7,29,66.4c0,3.9,8,3.3,6.7-3.4c-0.8-3.9-3.1-8.9-3.7-16.2c-0.6-7.3,3.3-9.7,3.3-9.7
		v-1.9c-6.2,3-5,16.3-3.1,22.5C34.1,63.9,32.7,64.9,32.7,64.9L32.7,64.9z"/>
	<path class="st0" d="M94.3,66.4c0-1.7-1.8-2.4-3.7-1.5c0,0-1.4-1,0.5-7.1c1.9-6.2,3.1-19.5-3.1-22.5v1.9c0,0,3.9,2.4,3.3,9.7
		c-0.6,7.3-2.9,12.3-3.7,16.2C86.2,69.8,94.3,70.3,94.3,66.4L94.3,66.4z"/>
	<path class="st0" d="M30.3,70.4l-3.8,3.1c-4.4-3.4-6.3,0.6-6.3,0.6c1.6-0.3,2.9,0.2,2.9,0.2c-3.4,0.9-2.5,3.1-2.5,3.1
		s3.5-2.1,4.9,0.3c1.9,3.1-0.5,5.5-0.5,5.5c5.8,0,3.9-7.7,3.9-7.7l5.1-5L30.3,70.4L30.3,70.4z"/>
	<path class="st0" d="M102.3,74.1c0,0-1.9-4-6.3-0.6l-3.8-3.1h-3.7l5.1,5c0,0-1.9,7.7,3.9,7.7c0,0-2.4-2.4-0.5-5.5
		c1.5-2.4,4.9-0.3,4.9-0.3s0.8-2.2-2.5-3.1C99.3,74.3,100.7,73.8,102.3,74.1L102.3,74.1z"/>
	<path class="st0" d="M35.2,41.5l0.1-3.1c-0.1,0.6-0.6,1-1.2,1.4c-0.5,0.3-0.3,0.7-0.3,0.7C35,40.5,35.2,41.5,35.2,41.5L35.2,41.5z"
		/>
	<path class="st0" d="M34.6,49.4c0.2,2.1,0.8,1.3,0.8,1.3s-0.2-3.4-0.2-4.1C35.1,46,33,46.3,33,47c0,0.7,0.4,3.7,0.4,3.7l0.6-0.1
		L33.9,48C33.9,48,34.4,47.4,34.6,49.4L34.6,49.4z"/>
	<path class="st0" d="M35,56.6c0.5,0.7,0.6-2.8,0.4-3.4c0,0-1.5-0.5-1.4,0.3C34.2,54.4,34.4,55.8,35,56.6L35,56.6z"/>
	<path class="st0" d="M33.1,43.3c0,0.7,2.1,0.4,2.1,0.4v-1.1C35.1,42.7,33.1,42.3,33.1,43.3L33.1,43.3z"/>
	<path class="st0" d="M35.1,45.4v-1.1c0,0-2.1-0.3-2.1,0.7C33.1,45.7,35.1,45.4,35.1,45.4L35.1,45.4z"/>
	<path class="st0" d="M40.8,83.3c0-0.4-0.3-0.6-0.6-0.6c-0.4,0-0.6,0.3-0.6,0.6c0,0.4,0.3,0.6,0.6,0.6
		C40.5,83.9,40.8,83.6,40.8,83.3L40.8,83.3z"/>
	<path class="st0" d="M89.6,76.3c-0.4,0-0.6,0.3-0.6,0.6c0,0.4,0.3,0.6,0.6,0.6c0.4,0,0.6-0.3,0.6-0.6C90.2,76.6,90,76.3,89.6,76.3
		L89.6,76.3z"/>
	<path class="st0" d="M88.1,77.2c0-0.4-0.3-0.6-0.6-0.6c-0.4,0-0.6,0.3-0.6,0.6c0,0.4,0.3,0.6,0.6,0.6
		C87.8,77.9,88.1,77.6,88.1,77.2L88.1,77.2z"/>
	<path class="st0" d="M86.2,77.5c0-0.4-0.3-0.6-0.6-0.6c-0.4,0-0.6,0.3-0.6,0.6c0,0.4,0.3,0.6,0.6,0.6
		C85.9,78.2,86.2,77.9,86.2,77.5L86.2,77.5z"/>
	<path class="st0" d="M34.2,88.8l0.3-3.8c0,0-0.3-0.8-1.5-0.2l-0.2,2.9c0,0-0.7,1.1-2.1-0.1l0.2-3c0,0-0.5-0.6-1.4-0.2l-0.2,3.9
		C29.5,88.3,31.3,90.8,34.2,88.8L34.2,88.8z"/>
	<path class="st0" d="M32,87.2c0.2,0,0.4-0.2,0.4-0.4l0.1-1.3c0-0.2-0.2-0.4-0.4-0.4c-0.2,0-0.4,0.2-0.4,0.4l-0.1,1.3
		C31.6,87,31.7,87.2,32,87.2L32,87.2z"/>
	<path class="st0" d="M39.6,89.6l0.3-3.7c0,0-0.3-0.7-1.4-0.2l-0.2,2.8c0,0-0.6,1-2-0.1l0.2-2.8c0,0-0.4-0.6-1.3-0.2l-0.2,3.8
		C35.1,89.1,36.8,91.5,39.6,89.6L39.6,89.6z"/>
	<path class="st0" d="M37.4,88.1c0.2,0,0.4-0.1,0.4-0.4l0.1-1.2c0-0.2-0.1-0.4-0.4-0.4c-0.2,0-0.4,0.1-0.4,0.4l-0.1,1.2
		C37.1,87.9,37.2,88.1,37.4,88.1L37.4,88.1z"/>
	<path class="st0" d="M44.4,90l0.1-1.9c0,0-0.2-1-1.1-0.3l-0.1,0.9c0,0-0.5,0.7-0.4-0.5c0.1-1.2,0.1-1.2,0.1-1.2s-0.3-0.4-0.6,0.1
		l0,1.5c0,0-0.3,0.3-0.7,0l0.2-2.2c0,0-0.3-0.9-1.2-0.2l-0.2,3.4C40.4,89.5,41.7,91.8,44.4,90L44.4,90z"/>
	<path class="st0" d="M32,81.9c0-0.4-0.3-0.6-0.6-0.6c-0.4,0-0.6,0.3-0.6,0.6s0.3,0.6,0.6,0.6C31.7,82.5,32,82.2,32,81.9L32,81.9z"
		/>
	<path class="st0" d="M35.1,82.3c0-0.4-0.3-0.6-0.6-0.6s-0.6,0.3-0.6,0.6c0,0.4,0.3,0.6,0.6,0.6S35.1,82.7,35.1,82.3L35.1,82.3z"/>
	<path class="st0" d="M37.7,82.7c0-0.4-0.3-0.6-0.6-0.6c-0.4,0-0.6,0.3-0.6,0.6c0,0.4,0.3,0.6,0.6,0.6
		C37.4,83.4,37.7,83.1,37.7,82.7L37.7,82.7z"/>
	<path class="st0" d="M34.6,71.7l0,2.3l1.4,1.2C36,75.2,36.8,72.4,34.6,71.7L34.6,71.7z"/>
	<path class="st0" d="M36.7,77.6c-0.2,0.2-0.5,0.6-0.6-0.1c-0.2-0.8-0.8-0.7-1.1-0.7c-0.3,0-0.8,1.4-1.1,0.4c-0.3-1-0.5-1.5-1.7-1.3
		v2.3l5.9,1.3c0,0,0-1.6-0.3-1.8C37.5,77.5,36.8,77.4,36.7,77.6L36.7,77.6z"/>
	<path class="st0" d="M38.3,80.6c0,0-4-1.2-6-1.4l0,0.9l6.2,1.4C38.4,81.6,38.6,81.4,38.3,80.6L38.3,80.6z"/>
	<path class="st0" d="M93.3,88.3l-0.2-3.9c-0.9-0.4-1.4,0.2-1.4,0.2l0.2,3c-1.4,1.2-2.1,0.1-2.1,0.1l-0.2-2.9
		c-1.1-0.6-1.5,0.2-1.5,0.2l0.3,3.8C91.4,90.8,93.3,88.3,93.3,88.3L93.3,88.3z"/>
	<path class="st0" d="M90.4,86.9c0,0.2,0.2,0.4,0.4,0.4c0.2,0,0.4-0.2,0.4-0.4l-0.1-1.3c0-0.2-0.2-0.4-0.4-0.4
		c-0.2,0-0.4,0.2-0.4,0.4L90.4,86.9L90.4,86.9z"/>
	<path class="st0" d="M87.7,89.1l-0.2-3.8c-0.9-0.4-1.3,0.2-1.3,0.2l0.2,2.8c-1.3,1.2-2,0.1-2,0.1l-0.2-2.8
		c-1.1-0.5-1.4,0.2-1.4,0.2l0.3,3.7C85.9,91.5,87.7,89.1,87.7,89.1L87.7,89.1z"/>
	<path class="st0" d="M85.2,86.1c-0.2,0-0.4,0.2-0.4,0.4l0.1,1.2c0,0.2,0.2,0.4,0.4,0.4c0.2,0,0.4-0.2,0.4-0.4l-0.1-1.2
		C85.6,86.3,85.4,86.1,85.2,86.1L85.2,86.1z"/>
	<path class="st0" d="M79.5,88.6l-0.1-0.9c-0.9-0.7-1.1,0.3-1.1,0.3l0.1,1.9c2.7,1.9,4-0.5,4-0.5l-0.2-3.4c-0.9-0.7-1.2,0.2-1.2,0.2
		l0.2,2.2c-0.5,0.3-0.7,0-0.7,0l0-1.5c-0.3-0.5-0.6-0.1-0.6-0.1s0,0,0.1,1.2C80,89.3,79.5,88.6,79.5,88.6L79.5,88.6z"/>
	<path class="st0" d="M14.8,14.3c0.4-0.2,0.8-0.5,0.6-1.2l-1.9-4.9L13,8.5l1.9,4.7c0.2,0.4,0.1,0.6-0.2,0.7c-0.3,0.1-0.4,0-0.6-0.4
		l-1.9-4.7L11.7,9l1.9,4.9C13.9,14.5,14.4,14.5,14.8,14.3L14.8,14.3z"/>
	<polygon class="st0" points="17.1,13.5 15.5,8.3 15.5,8.3 17.7,13.3 18.5,13.1 16.8,7.3 16.3,7.4 17.8,12.4 17.8,12.4 15.6,7.6 
		14.9,7.8 16.6,13.6 	"/>
	<polygon class="st0" points="20,12.7 18.5,6.8 18,7 19.5,12.8 	"/>
	<polygon class="st0" points="22.1,12.2 21.5,6.1 20.9,6.3 21.6,11.7 21.6,11.7 19.8,6.5 19.3,6.6 21.3,12.4 	"/>
	<polygon class="st0" points="24.9,11.6 24.8,11.2 23.9,11.3 23.4,9 24.3,8.8 24.2,8.3 23.3,8.5 22.9,6.3 23.8,6.2 23.7,5.7 22.3,6 
		23.4,11.9 	"/>
	<path class="st0" d="M26.3,11.4l-0.5-2.9l0.4-0.1c0.3,0,0.4,0,0.5,0.3l0.4,2.5l0.5-0.1l-0.4-2.6c-0.1-0.4-0.3-0.5-0.7-0.4l0,0
		C26.9,8,27,7.8,27,7.4l-0.3-1.5c-0.1-0.6-0.4-0.6-1-0.5l-1,0.2l1,6L26.3,11.4L26.3,11.4z M25.3,5.9l0.3-0.1c0.3,0,0.5,0,0.5,0.3
		l0.2,1.3c0.1,0.4-0.1,0.5-0.3,0.5L25.7,8L25.3,5.9L25.3,5.9z"/>
	<path class="st0" d="M27.9,6.6c0,0.3,0.2,0.5,0.3,0.7l1,1.3c0.1,0.2,0.2,0.3,0.2,0.5l0.1,0.8c0,0.3,0,0.5-0.3,0.5
		c-0.2,0-0.4-0.1-0.4-0.4l-0.1-0.8l-0.5,0.1l0.1,0.8c0.1,0.6,0.4,0.8,1,0.7c0.5-0.1,0.8-0.4,0.7-1L30,8.9c0-0.3-0.2-0.5-0.3-0.7
		l-1.1-1.4c-0.1-0.1-0.2-0.3-0.2-0.5l-0.1-0.6c0-0.2,0-0.4,0.3-0.5c0.3,0,0.3,0.1,0.4,0.4l0.1,0.7l0.5-0.1l-0.1-0.8
		c-0.1-0.5-0.4-0.8-1-0.7c-0.6,0.1-0.8,0.4-0.7,1L27.9,6.6L27.9,6.6z"/>
	<polygon class="st0" points="31.7,10.5 30.9,4.5 30.4,4.6 31.2,10.6 	"/>
	<path class="st0" d="M33.7,10.3c0.7-0.1,0.9-0.5,0.8-1.1L34,5.1C34,4.5,33.7,4.2,33,4.3l-0.9,0.1l0.8,6L33.7,10.3L33.7,10.3z
		 M33,4.7c0.4,0,0.5,0.1,0.5,0.4L34,9.3c0,0.3-0.1,0.5-0.4,0.5l-0.3,0l-0.6-5.1L33,4.7L33,4.7z"/>
	<path class="st0" d="M36,8.3l1-0.1l0.4,1.6l0.5-0.1l-1.5-5.9l-0.8,0.1l-0.2,6.1l0.5-0.1L36,8.3L36,8.3z M36,4.3L36,4.3l0.8,3.4
		L36,7.8L36,4.3L36,4.3z"/>
	<path class="st0" d="M39.6,9.6c0.8-0.1,0.9-0.5,0.8-1.1L40,4.5c-0.1-0.6-0.3-1-1-0.9l-0.9,0.1l0.6,6L39.6,9.6L39.6,9.6z M39,4.1
		c0.4,0,0.5,0.1,0.5,0.4l0.4,4.2c0,0.4-0.1,0.5-0.4,0.5l-0.3,0l-0.5-5.1L39,4.1L39,4.1z"/>
	<polygon class="st0" points="43.4,9.3 43,3.9 43,3.9 44.1,9.2 44.9,9.2 44.5,3.1 44,3.2 44.4,8.3 44.3,8.3 43.3,3.2 42.5,3.3 
		42.9,9.3 	"/>
	<path class="st0" d="M46.3,7.4l1-0.1L47.6,9l0.6,0l-1.3-6l-0.8,0l-0.5,6.1l0.6,0L46.3,7.4L46.3,7.4z M46.6,3.4L46.6,3.4l0.6,3.5
		l-0.9,0.1L46.6,3.4L46.6,3.4z"/>
	<path class="st0" d="M49.7,8.9c0.6,0,0.8-0.4,0.8-0.9l0-0.9l-0.6,0l0,0.8c0,0.3-0.1,0.4-0.3,0.4c-0.2,0-0.3-0.1-0.3-0.4l-0.2-4.4
		c0-0.3,0.1-0.4,0.3-0.4c0.2,0,0.3,0.1,0.3,0.4l0,0.8l0.6,0l0-0.8c0-0.5-0.3-0.8-0.9-0.8c-0.6,0-0.8,0.4-0.8,0.9l0.2,4.5
		C48.8,8.7,49.1,9,49.7,8.9L49.7,8.9z"/>
	<polygon class="st0" points="51.9,8.8 51.7,2.8 51.1,2.8 51.4,8.8 	"/>
	<path class="st0" d="M54,8.8c0.7,0,1-0.5,0.9-1.1l-0.1-4.1c0-0.6-0.3-1-1-1c-0.7,0-1,0.5-0.9,1.1l0.1,4.1C53,8.4,53.2,8.8,54,8.8
		L54,8.8z M53.8,3.1c0.4,0,0.4,0.2,0.4,0.6l0.1,4.1c0,0.3,0,0.6-0.4,0.6c-0.4,0-0.4-0.2-0.4-0.6l-0.1-4.1
		C53.4,3.3,53.4,3.1,53.8,3.1L53.8,3.1z"/>
	<polygon class="st0" points="56.4,8.7 56.3,3.3 56.4,3.3 57.1,8.6 57.9,8.6 57.8,2.6 57.3,2.6 57.4,7.8 57.4,7.8 56.6,2.6 
		55.8,2.6 55.9,8.7 	"/>
	<path class="st0" d="M59.4,6.9l1,0l0.2,1.7l0.6,0l-0.9-6l-0.8,0l-0.8,6.1l0.6,0L59.4,6.9L59.4,6.9z M59.9,3L59.9,3l0.5,3.5l-0.9,0
		L59.9,3L59.9,3z"/>
	<polygon class="st0" points="63.4,8.1 62.5,8.1 62.5,2.6 62,2.6 62,8.6 63.4,8.6 	"/>
	<path class="st0" d="M66,7l1,0l0.2,1.7l0.6,0l-0.8-6.1l-0.8,0l-1,6l0.6,0L66,7L66,7z M66.6,3L66.6,3l0.4,3.5l-0.9,0L66.6,3L66.6,3z
		"/>
	<path class="st0" d="M69.3,8.8c0.5,0,1-0.2,1-0.8l0.2-5.2l-0.6,0l-0.2,5.1c0,0.4-0.2,0.6-0.4,0.6c-0.3,0-0.4-0.1-0.4-0.6l0.2-5.1
		l-0.6,0l-0.2,5.2C68.4,8.6,68.9,8.8,69.3,8.8L69.3,8.8z"/>
	<polygon class="st0" points="71.8,8.8 72.3,8.8 72.5,3.3 73.2,3.3 73.2,2.8 71.4,2.8 71.4,3.2 72,3.2 	"/>
	<path class="st0" d="M74.7,9c0.7,0,1-0.4,1-1l0.2-4.1c0-0.6-0.2-1-0.9-1.1c-0.7,0-1,0.4-1,1l-0.2,4.1C73.8,8.5,74,9,74.7,9L74.7,9z
		 M74.3,8l0.2-4.1c0-0.3,0.1-0.6,0.4-0.5c0.4,0,0.4,0.3,0.4,0.6L75.2,8c0,0.3-0.1,0.6-0.4,0.5C74.4,8.5,74.3,8.3,74.3,8L74.3,8z"/>
	<polygon class="st0" points="77.5,3.7 77.5,3.7 77.9,9.2 78.7,9.2 79.1,3.2 78.6,3.1 78.2,8.3 78.2,8.3 77.9,3.1 77.1,3 76.7,9.1 
		77.2,9.1 	"/>
	<path class="st0" d="M80.6,9.4c0.7,0.1,1-0.3,1.1-0.9L82,4.4c0-0.6-0.1-1-0.9-1.1c-0.7-0.1-1,0.3-1.1,0.9l-0.3,4.1
		C79.7,8.9,79.9,9.4,80.6,9.4L80.6,9.4z M80.3,8.3l0.3-4.1c0-0.3,0.1-0.6,0.5-0.5c0.4,0,0.4,0.3,0.4,0.6l-0.3,4.1
		c0,0.3-0.1,0.6-0.5,0.5C80.3,8.9,80.3,8.7,80.3,8.3L80.3,8.3z"/>
	<polygon class="st0" points="83.6,4 83.6,4 83.7,9.6 84.4,9.7 85.6,4.2 85.6,4.2 85.1,9.8 85.5,9.8 86.1,3.8 85.3,3.7 84.1,9 
		84.1,9 84,3.6 83.2,3.5 82.6,9.5 83.1,9.6 	"/>
	<path class="st0" d="M87.2,8.3l1,0.1l0,1.7l0.5,0.1l-0.2-6.1L87.8,4l-1.6,5.9l0.5,0.1L87.2,8.3L87.2,8.3z M88.1,4.4L88.1,4.4l0,3.5
		l-0.8-0.1L88.1,4.4L88.1,4.4z"/>
	<polygon class="st0" points="96.5,5.7 96.5,5.7 96.2,11.3 96.8,11.4 98.4,6 98.4,6 97.5,11.5 98,11.6 99,5.6 98.2,5.5 96.6,10.7 
		96.6,10.7 96.9,5.3 96.1,5.1 95,11.1 95.5,11.2 	"/>
	<polygon class="st0" points="100.4,12.1 100.5,11.6 99.6,11.4 100.1,9 100.9,9.2 101,8.8 100.1,8.6 100.6,6.4 101.5,6.6 101.6,6.1 
		100.1,5.8 98.9,11.8 	"/>
	<polygon class="st0" points="100.9,12.2 101.4,12.3 102.5,9.9 102.5,9.9 102.5,12.5 103,12.7 103,9.5 104.3,6.8 103.8,6.6 
		102.8,8.9 102.8,8.9 102.8,6.4 102.3,6.3 102.3,9.4 	"/>
	<polygon class="st0" points="104.2,13 105.7,7.1 105.2,7 103.7,12.8 	"/>
	<path class="st0" d="M106,13.6c0.6,0.2,0.9-0.1,1.1-0.5l0.3-0.8l-0.5-0.2l-0.2,0.8c-0.1,0.2-0.2,0.3-0.4,0.3
		c-0.2-0.1-0.3-0.2-0.2-0.5l1.3-4.2c0.1-0.2,0.2-0.3,0.4-0.3c0.2,0.1,0.3,0.2,0.2,0.5l-0.2,0.7l0.5,0.2l0.2-0.8
		c0.1-0.5,0-0.9-0.6-1.1c-0.6-0.2-0.9,0.1-1.1,0.5l-1.3,4.3C105.3,13,105.4,13.4,106,13.6L106,13.6z"/>
	<path class="st0" d="M108.4,14.4c0.7,0.3,1.1,0,1.3-0.6l1.5-3.8c0.2-0.6,0.2-1-0.5-1.3c-0.7-0.3-1.1,0-1.3,0.6l-1.5,3.8
		C107.6,13.6,107.7,14.1,108.4,14.4L108.4,14.4z M108.4,13.3l1.5-3.8c0.1-0.3,0.3-0.5,0.6-0.4c0.3,0.1,0.3,0.4,0.2,0.7l-1.5,3.8
		c-0.1,0.3-0.3,0.5-0.6,0.4C108.2,13.8,108.3,13.6,108.4,13.3L108.4,13.3z"/>
	<path class="st0" d="M9,12.8c1,1.5,1.3,1.9,1.3,3.1l0,0.4c0,0.9,0,2,0.7,2.7c0.6,0.6,1.6,0.9,3,0.9c1.1,0,2.5-0.3,4.2-0.6
		c2.6-0.5,5.8-1.1,8.8-0.9c-0.7,0.7-2.9,2.5-7.5,2c-4.5-0.5-9.3-0.7-11,1.7c-0.9,1.3-0.8,3.2,0.5,5.7c0,0.1,0.1,0.1,0.2,0.1
		c0,0,3.5-1.2,2.7-5.1c1.4,0.1,2.7,0.6,4.1,1c0.3,0.1,0.6,0.2,0.9,0.3c-2.8,0.8-5.1,2-5.1,3.2c0,0.8,0.9,1.1,2.9,2
		c2.1,1,4.1,1.7,6,2.6c5.2,2.6,9,4.8,9.6,4.3c0.8-0.7-11.8-5.7-8.8-10c1.7-2.4,4.4,0.8,2.1,1.3c-2.2,0.5,3.2,6.1,9.7,8
		c0,0,1.1-1.2,2-1.7c0,0,1-0.7-0.5-1.1c-1.4-0.4-10.3-3.1-6.6-6.5c1.1-1,1.2-1.7,0.7-2.2c1.3-0.5,2.3-1.1,3-1.9
		c0.7-0.7,1.1-1.6,1.1-2.4c0-2.3-2.9-5.5-4-6.6c8.4-1.3,19.5-2.3,32.5-2.3c13.3,0,24.8,1,33.3,2.4c-1,1.1-4,4.3-4,6.6
		c0,0.8,0.4,1.7,1.1,2.4c0.5,0.5,1.2,1,2,1.4c-0.9,0.6-1.4,1.2-1.4,1.6c0,2,1.8,2.6,1.8,2.6c0.2,2.3-5.2,4.7-6.7,5.4
		c0.4,0.1,1.1,0.5,1.9,1c5.2-1.5,6.6-4.2,7.7-5.6c1.2-1.5-1.8-0.7-1.8-2.2c0-1.5,4.5-2.6,3.6,1.5c-0.8,3.7-6.2,6.1-8.5,7
		c0.3,0.3,0.6,0.5,0.9,0.9c0.1,0.2,0.4,0.7,0.7,0.6c0.3-0.1,0.1-0.9,0.5-0.8c0.4,0.1,0.8,0.3,1-0.2c0.2-0.4,0.2-0.9,0.5-0.6
		c0.4,0.3,0.4,0.5,0.8,0.3c0.4-0.1-0.3-1.2,0.5-0.9c0.8,0.3,0.9-0.2,0.8-0.6c-0.2-0.4,0.3-0.2,0.9,0.1c0.5,0.3,0.6-0.3,0.3-0.7
		c-0.3-0.4,0.1-0.7,0.6-0.3c0.5,0.5,1.3,0.3,0.7-0.3c-0.6-0.7,0.1-1.2,0.8-0.7c0.7,0.5,0.6,0.2,0.2-0.4c-0.4-0.6-0.1-0.9,0.8-0.3
		c0.9,0.6,1.4,0.3,0.5-0.4c-0.9-0.7-0.6-1.2,0.4-0.7c1,0.6,2.1,0.8,1.1-0.1c-1.1-0.9-1.4-1.6-0.1-0.9c1.3,0.7,2.3,0.5,0.4-0.7
		c-1.9-1.2,1-0.1,1.7,0.5c0.7,0.6,0.8-0.3-0.5-1.1c-1.3-0.7-0.5-1,1.2-0.1c1.8,0.9,1.8,0.1,0.3-0.5c-1.4-0.6-2-1.6-0.3-0.7
		c1.8,0.9,3.6,1,1.8,0.1c-0.8-0.4-1.4-0.8-1.6-1c0.5-0.2,1.2,0,2.4,0.8c2.4,1.7,0.1,3.5-1.9,4.2c-3,1.1-4.2,2.3-7.4,4.6
		c-1.9,1.4-4.4,1.8-6.1,1.9c0.2,0.3,0.3,0.7,0.4,1.1c2.8-0.1,5.9-1,7.9-2.2c2.6-1.6,7-4.1,10.2-4.8c2.5-0.6,4.8-1.9,1-4.6
		c-1.3-0.9-2.6-1.7-3.9-2.3c0.1,0,0.1,0,0.2-0.1c1.4-0.5,2.7-0.9,4.1-1c-0.8,3.8,2.7,5.1,2.7,5.1c0.1,0,0.1,0,0.2-0.1
		c1.2-2.5,1.4-4.4,0.5-5.7c-1.7-2.4-6.5-2.2-11-1.7c-5.1,0.6-7.3-1.7-7.7-2.2c0.6-0.1,1.2-0.1,1.9,0c1.4,0.1,3,0.4,4.6,0.6
		c3.7,0.6,7.5,1.3,9.3,0c0.5-0.4,0.9-1,0.9-1.8c0.2-1.6,1-3,1.7-4.3c0.8-1.3,1.4-2.4,1.1-3.4c-0.2-0.7-0.9-1.2-2-1.7
		c-5-2.2-12.6-4.1-21.4-5.5C83.1,0.8,72.1,0,61.2,0c-21,0-40.6,2.7-51,6.9c-0.1,0-2.1,0.7-2.6,2.2C7.3,9.8,7.5,10.6,8,11.3
		C8.4,11.9,8.7,12.4,9,12.8L9,12.8z M10.5,7.8C10.5,7.8,10.5,7.8,10.5,7.8c10.4-4.3,29.8-6.9,50.7-6.9c25.7,0,44.4,4.2,52.7,7.8
		c0.8,0.4,1.4,0.8,1.5,1.2c0.2,0.6-0.4,1.6-1,2.7c-0.8,1.3-1.7,2.8-1.8,4.6c-0.1,0.5-0.2,0.9-0.6,1.2c0,0,0,0-0.1,0
		c-0.1-0.3-0.2-0.6-0.5-0.9c-3.5-3.5-24.8-7.4-49.8-7.4c-12.8,0-25.4,1-35.5,2.8c-4.5,0.8-8.2,1.7-10.8,2.7
		c-2.2,0.8-3.5,1.6-3.9,2.4c-0.2-0.5-0.2-1.1-0.2-1.7c0,0,0-0.4,0-0.4c0-1.5-0.4-2-1.4-3.6c-0.3-0.4-0.6-0.9-1-1.5
		c-0.4-0.5-0.5-1-0.3-1.4C8.7,8.5,10,7.9,10.5,7.8L10.5,7.8z M103.3,18.1c-1.6-0.3-3.2-0.5-4.7-0.7c-3.6-0.3-5.8,1-6.9,2.1
		c0.3-1.8,2.7-4.6,4.3-6.1c8.1,1.4,13.3,3.1,14.7,4.5c0.2,0.2,0.3,0.4,0.3,0.4c0,0.1,0,0.1-0.1,0.2
		C109.1,19.1,106.1,18.6,103.3,18.1L103.3,18.1z M95.6,18.7l0.4,0.2c0.5,0.6,2.9,3.1,8.4,2.5c2.3-0.2,7.4-0.8,9.6,0.7
		c-2.3-0.3-4.3,0.3-6.3,1c-0.4,0.1-0.8,0.3-1.2,0.4c-4.8-1.9-9-1.3-11.5-0.3c-1-0.4-1.8-1-2.3-1.5c-0.3-0.3-0.6-0.7-0.7-1
		c0.6-0.7,1.7-1.7,3.7-2.2C95.5,18.6,95.6,18.7,95.6,18.7L95.6,18.7z M112.9,22.9c0.6,0,1.3,0.1,2,0.3c0.3,0.9,0.2,2.1-0.5,3.7
		C113.6,26.3,112.4,25.2,112.9,22.9L112.9,22.9z M32,19c-4.1-2.5-9.8-1.4-14-0.6c-1.7,0.3-3.1,0.6-4.1,0.6c-0.7,0-1.3-0.1-1.8-0.3
		c-0.1-0.1-0.1-0.2-0.1-0.2c0-0.1,0.1-0.2,0.3-0.4c1.5-1.5,7-3.3,15.5-4.7C29.3,14.8,31.4,17.2,32,19L32,19z M27.8,23.5
		c-1.8-0.6-4.9-0.5-6.6-0.3c-0.9,0.1-1.8,0.3-2.7,0.4c-0.8-0.2-1.6-0.5-2.3-0.7c-2.1-0.7-4.1-1.3-6.3-1c2.2-1.5,7.3-1,9.6-0.7
		c5.5,0.6,8-1.9,8.4-2.5l0.4-0.2c0,0,0,0,0,0c1.4,0.2,2.8,0.7,3.9,1.6C31.9,21.4,30.3,22.7,27.8,23.5L27.8,23.5z M9.4,26.7
		C8.8,25.1,8.6,23.9,9,23c0.7-0.2,1.3-0.3,2-0.3C11.4,25,10.3,26.2,9.4,26.7L9.4,26.7z"/>
	<path class="st0" d="M64.7,30.6c0,0-0.1,0-0.1,0c0,0,0,0.1,0,0.1c0,0,0.3,2.9,3.5,2.9c2.9,0,5.5-2.3,6.1-2.9c0.4,0.6,1.9,3,3.3,2.8
		c0.6-0.1,1-0.6,1.4-1.5c0.4,0.4,1.6,1.5,3.1,1.4c1.2-0.1,2.3-0.9,3.2-2.5c0-0.1,0-0.1,0-0.2s-0.1-0.1-0.2,0c0,0-2.8,0.8-4.5-0.4
		c-0.9-0.7-1.4-1.8-1.4-3.5c0-2.5,0.2-3.9,0.4-4.8c0.8,0.4,1.8,0.8,2.8,0.8c3.1,0.1,3.6-1.8,3.7-1.9c0,0,0-0.1,0-0.1
		c0,0-0.1-0.1-0.1,0c-1,0.2-1.8,0-2.2-0.1c1.4-0.5,2.4-0.5,3,0c0.6,0.5,0.4,1.4,0.4,1.4c0,0.1,0,0.1,0.1,0.2c0.1,0,0.1,0,0.2,0
		c1.1-1.2,1.5-2.2,1.2-3c-0.5-1.4-2.8-2-5-2.5c-3.1-0.7-4.3-4.1-4.3-4.1c0,0,0-0.1-0.1-0.1c0,0-0.1,0-0.1,0
		c-0.8,0.4-1.4,0.9-1.8,1.4l-2.1-2.4c0,0-0.1,0-0.1,0c0,0-0.1,0-0.1,0.1c0,0-0.9,1.1-0.4,2.8c-0.4-0.4-1-1.2-1-2
		c0-0.1,0-0.1-0.1-0.1c-0.1,0-0.1,0-0.2,0c0,0-2.2,2-0.1,5c-0.5,0.2-2.1,0.7-5.4-0.3c0,0-0.1,0-0.1,0c0,0-0.1,0.1-0.1,0.1
		c0,0-0.3,1.1,0.5,2.1c0.6,0.8,1.8,1.2,3.4,1.3c-0.5,0.4-2,1.1-5,0.3c0,0-0.1,0-0.1,0c0,0-0.1,0.1,0,0.1c0,0,0.9,3.6,5.4,3
		c-0.9,0.8-3.4,2.7-6.7,1.8c0,0-0.1,0-0.1,0c0,0-0.1,0.1-0.1,0.1c0,0.1,0.1,2,1.6,2.9c1.3,0.7,3.2,0.3,5.7-1.1
		C71.7,28.6,70.3,31.2,64.7,30.6L64.7,30.6z M72.4,21c0.2-0.2,0.2-0.5,0.1-0.8c-0.1-0.3-0.4-0.4-0.7-0.4c-1.5,0-2.5-0.4-3-1
		c-0.1-0.2-0.2-0.4-0.3-0.6c3.6,0.8,5.1,0,5.3-0.1c0.2-0.1,0.3-0.3,0.4-0.5c0-0.2,0-0.4-0.1-0.6c-0.9-1.2-1-2.1-0.8-2.8
		c0.5,0.8,1.1,1.3,1.2,1.3c0.3,0.2,0.6,0.2,0.9,0c0.3-0.2,0.4-0.6,0.2-0.9c-0.2-0.5-0.3-1.1-0.3-1.6l1.5,1.7
		c-0.1,0.2-0.1,0.3-0.2,0.5c-0.2,1,0.1,1.8,0.3,2.1c-2.5,1.6-2.5,3.1-2.4,3.7c-0.3,0.5-1.3,1.8-3,2.1c-1.8,0.2-2.9-0.4-3.5-1.1
		C71.1,22.5,72.3,21.1,72.4,21L72.4,21z M78.7,13.8c0.2,0.5,0.6,1.1,1.1,1.7l-1.2,0.1l-0.8-0.9C78,14.4,78.3,14.1,78.7,13.8
		L78.7,13.8z M87.5,20.5c-0.1-0.1-0.2-0.2-0.3-0.3c-0.9-0.7-2.2-0.7-4.2,0c-0.3,0.1-0.5,0.4-0.5,0.7c0,0.3,0.1,0.6,0.4,0.7
		c0.1,0,0.5,0.2,1.1,0.3c-0.5,0.2-1,0.3-1.7,0.3c-0.9,0-1.8-0.3-2.5-0.7c0.3-0.4,0.6-0.7,1-1c0.1-0.1,0.3-0.2,0.4-0.3
		c0.7-0.5,1.3-1.6,1.7-2.5c0.1,0,0.2,0,0.2,0.1c1.2,0.3,4,0.8,4.4,1.9C87.7,19.8,87.7,20.1,87.5,20.5L87.5,20.5z M83.2,32
		c-0.5,0.4-0.9,0.6-1.4,0.6c-1.3,0.1-2.5-1.3-2.5-1.3c-0.1-0.1-0.2-0.2-0.4-0.2c-0.2-0.4-0.5-1-0.6-1.8c0.1,0,0.2,0,0.2,0
		c0.3,0.8,0.7,1.4,1.4,1.9C81,31.9,82.2,32,83.2,32L83.2,32z M77.4,15.6l0.6,0.6c0.1,0.2,0.3,0.2,0.5,0.2c0,0,0.5,0,1-0.1
		c-0.1,0.3-0.3,0.6-0.5,0.7c-0.4,0.2-0.9,0.2-1.3,0c0,0,0-0.1-0.1-0.1C77.6,17,77.2,16.4,77.4,15.6L77.4,15.6z M80.8,19.4
		c-0.1,0.1-0.3,0.2-0.4,0.3c-0.5,0.4-0.9,0.7-1.3,1.2c-0.1-0.1-0.3-0.2-0.4-0.3c0.4-0.6,1-1.1,1.7-1.5c1-0.5,1.1-1.5,1-2.2
		c0.2,0.1,0.4,0.2,0.6,0.3C81.8,18.1,81.4,19,80.8,19.4L80.8,19.4z M75,30.3c-0.2-0.1-0.5-0.5-0.4-2.2c0.6-0.3,1.1-0.9,1.4-1.3
		c-0.1,0.8,0.1,1.5,0.5,1.9c0.1,0.1,0.2,0.2,0.3,0.2C76.3,29.7,75.5,30.5,75,30.3L75,30.3z M74.9,24.6
		C74.9,24.6,74.9,24.6,74.9,24.6c0.1,0,0.9-0.3,1.4-0.9c0,0.2,0,0.5,0.1,0.8c-1.2,2.1-2.3,2.9-2.9,3C73.4,27.2,74.1,25.9,74.9,24.6
		L74.9,24.6z M78.3,28.2c-0.5,0.1-0.8,0-1-0.2c-0.5-0.5-0.2-2,0-2.9c0.3-0.1,0.6-0.2,0.9-0.3c0,0.6-0.1,1.3-0.1,2.2
		C78.2,27.4,78.3,27.8,78.3,28.2L78.3,28.2z M77.4,18c0.6,0.2,1.3,0.3,1.9,0c0.4-0.2,0.9-0.6,1.1-1.6c0.1,0,0.1,0,0.1,0l0.1,0.2
		l0,0.1l0,0c0,0,0.3,1.3-0.5,1.7c-0.9,0.4-1.6,1-2,1.7c-0.3-0.2-0.4-0.4-0.4-0.4c-0.2-0.2-0.5-0.3-0.8-0.2c-0.2,0.1-0.4,0.3-0.5,0.5
		c0,0.1-0.3,0.3-1.2,0.6C75.3,20,75.8,19.1,77.4,18C77.4,18,77.4,18,77.4,18L77.4,18z M77.5,29.8c0.2,0.5,0.4,1.2,0.6,1.6
		c0,0.1-0.1,0.1-0.1,0.2c-0.2,0.7-0.5,1.1-0.7,1.1c-0.4,0-1.2-0.7-1.9-1.5C76.3,30.9,77,30.5,77.5,29.8L77.5,29.8z M77.4,24.1
		c-0.1-0.4-0.3-1.4-0.2-2.3c0-0.1,0-0.1-0.1-0.2c-0.1,0-0.1,0-0.2,0c0,0-0.9,0.9-1.6,1.5c-0.1-0.2-0.3-0.7-0.3-1.5c0,0,0-0.1,0-0.1
		c1.4-0.3,1.9-0.8,2.1-1.1c0.3,0.3,0.8,0.8,1.6,1.3c-0.2,0.5-0.3,1.1-0.4,1.9C78.2,23.7,77.8,23.9,77.4,24.1L77.4,24.1z M72.7,24.3
		c0.1-0.1,0.2-0.3,0.2-0.5c0.3-0.1,0.8-0.4,1.2-0.9c0,0.2,0.1,0.5,0.2,0.8c-0.7,1.2-1.6,2.3-2.1,2.9c-0.1,0-0.2,0-0.3,0.1
		c-2.3,1.4-4.1,1.9-5.2,1.3c-0.5-0.3-0.8-0.7-0.9-1.1C69.9,27.4,72.6,24.5,72.7,24.3L72.7,24.3z M72.8,28.3c0.3,0.1,0.5,0.2,0.8,0.2
		c0,0.3,0.1,0.9,0.2,1.4c-0.1,0-0.2,0.1-0.2,0.2c0,0-2.7,2.8-5.6,2.8c-1.4,0-2.1-0.6-2.4-1.2C70.5,31.7,72.2,29.5,72.8,28.3
		L72.8,28.3z"/>
	<path class="st0" d="M16.4,86.3c0.1-0.4,0.1-0.9-0.2-1c-0.3-0.1-0.5,0.2-0.6,0.3c0,0,0,0,0,0c0,0,0,0,0,0c0,0-0.4,0.8-1.6,0.7
		c-0.8,0-1.6,0.4-2,1c-0.3,0.4-0.3,0.9-0.2,1.3c0.3,0.8,0.9,1.2,1.2,1.1c0.1,0,0.3-0.1,0.2-0.5l0-0.2c0-0.2-0.1-0.3-0.1-0.4
		c0,0,0.1,0,0.2,0.1c0.4,0.2,0.9,0.3,1.1,0.1c0.1-0.1,0.3-0.3,0.1-0.6c-0.1-0.2-0.1-0.3-0.2-0.4c0-0.1-0.1-0.2-0.1-0.2
		c0,0,0.1-0.1,0.6-0.1C16,87.2,16.3,87.2,16.4,86.3L16.4,86.3z M13.3,87.6c-0.1,0-0.1,0-0.2,0c0.1,0,0.1-0.1,0.2-0.1
		C13.3,87.6,13.3,87.6,13.3,87.6L13.3,87.6z"/>
	<path class="st0" d="M117.2,85.2c-0.3-0.1-0.4-0.2-0.6-0.4c-0.3-0.2-0.6-0.5-1.3-0.5c-0.4,0-0.6,0.1-0.7,0.3c-0.2,0.4-0.1,1,0.3,2
		c0.1,0.2,0.1,0.4,0.1,0.5c-0.5-0.2-1-0.3-1.5-0.5c-0.3-0.1-0.6-0.1-0.9,0c-0.6,0.4-0.7,1.7-0.6,2.8c-1.4,0.1-2.5,1.1-3.3,1.8
		c0-0.5-0.1-1.1-0.3-1.4c-0.2-0.2-0.6-0.3-1-0.3c-0.5,0-1,0.2-1.6,0.5c0-0.3,0-0.6-0.1-0.8c-0.1-0.2-0.3-0.4-0.6-0.5
		c-0.4-0.1-1-0.1-1.5,0.4c-0.2,0.2-0.3,0.5-0.2,0.7c0.1,0.5,0.6,0.9,1.2,1.2c-0.1,0.1-0.1,0.2-0.2,0.3c-0.3,0.4-0.4,0.8-0.2,1.1
		c0.2,0.7,1.1,1.1,2,1.4c-1.2,1.1-2.6,2.1-4.1,1.7c-0.2-0.3-1.8-1.9-4.8-1.1l-0.3,0.1c-3,0.7-5.4,1.3-6.6,4.2
		c-0.4,0.9-0.7,1.3-1,1.7c-0.7,0.9-1.3,1.6-1.8,7.2c-0.5,0.1-2.7,0.9-4.1,1.7c-0.3,0.1-0.6,0.2-0.9,0.2c-0.7,0.1-1.6,0.1-2.7,1.4
		c-0.6,0.5-1,0.4-1.4,0.3c-0.4-0.1-0.8-0.1-1.5,0.4c-0.4,0.2-0.8,0.3-1.1,0.3c0.2-0.5,0.8-1.8,2-2.1c1.2-0.3,4-1.2,5.2-2.7
		c0,0,0,0,0,0c0.4-0.9,1-1.4,1.5-1.7c0.6-0.5,1.1-0.9,0.8-1.8c-0.3-0.6,0-1.3,0.2-2c0.2-0.7,0.5-1.4,0.1-1.8
		c0.5-0.2,1.6-0.5,1.9-1.1c0.1-0.2,0.1-0.3,0.1-0.5c-0.1-0.3,0-0.7,0.1-1.2c0.2-0.8,0.3-1.5,0-2c-0.2-0.2-0.4-0.3-0.8-0.3
		c-0.1-0.2-0.4-0.7-0.9-0.8c-0.4-0.1-0.9,0.1-1.3,0.5c-0.2-0.1-0.9-0.3-1.4,0c-0.3,0.2-0.4,0.6-0.4,1.1L82,97.1
		c-0.3-0.1-1.4-0.2-3.3,1.1l-0.8,0.5c-1.9,1.2-3.4,2.1-3.9,4.4c-0.2,1.1-0.4,1.8-0.6,2.1c-0.1-0.1-0.3-0.2-0.4-0.3
		c-0.5-0.3-0.9-0.5-1.4-0.7c-0.9-0.4-1.6-0.7-2.1-1.3c-1-1.3-2.4-1.4-4.2-0.3c-2,1.3-3.6,1-5.8,0.2c-0.4-0.1-0.8-0.3-1.2-0.5
		c-2.3-0.9-5.5-2.1-6.6-3.7c-0.2-0.3-0.4-0.6-0.6-0.9c-1-1.5-1.8-2.7-3.9-2.8c-0.2-0.1-1.5-0.6-3,0.5c0,0,0,0,0,0
		c0,0-0.1,0.1-0.1,0.1c-0.1,0-0.2,0-0.3-0.2c-0.5-0.5-0.9-0.6-2,0.1c-0.1,0.1-1.8,1.4-2.4,2.6c-0.1,0-0.1-0.1-0.2-0.2
		c-0.8-1.8-1.6-2.9-2.5-3.1c-0.7-0.2-1.3-0.9-1.9-1.6c-0.4-0.4-0.7-0.9-1.2-1.3c-0.4-0.3-0.7-0.4-1.1-0.4c-0.7,0.1-1.2,0.8-1.7,1.5
		l-0.2,0.2C30,94,29,94.7,28.1,95.4c-0.4,0.3-0.7,0.5-1,0.8c0,0,0,0-0.1,0.1c-0.4-0.3-0.7-0.6-0.8-0.8c-0.4-1.3-1.5-2.7-2.1-3.4
		c0.1-0.8,0.1-1.6-0.4-2.3c0.6,0,1.1-0.4,1.5-1.2c0.2-0.4,0.2-0.7,0-0.9C25,87.2,24.3,87,23.1,87c-0.9,0-1.8,0.8-2.2,1.2
		c-0.5,0-1.2,0.1-2,0.4c0.1-0.4,0-0.8-0.3-1.1c-1.3-1.1-3.4,0.9-4.4,1.8c-0.7,0.7-0.8,1.5-0.8,2c0,0,0,0,0,0c-0.1,0-0.1,0-0.2,0.1
		c0,0-0.2,0-0.3-0.1c-0.3-0.1-0.7-0.2-1.2-0.2c-0.2-0.8-0.7-2.3-1.8-2.3c-0.1,0-0.3,0-0.5,0.1c0-0.1,0-0.2,0-0.3
		c0-0.4-0.1-0.7-0.4-1c-0.3-0.3-0.6-0.4-1-0.4c-0.8,0-1.4,0.6-1.4,1.4c0,0.4,0.1,0.7,0.4,1c0.1,0.1,0.2,0.1,0.3,0.2
		c-0.3,0.2-0.5,0.5-0.6,0.7c-0.1,0.3-0.1,0.7,0.3,1.1c0.4,0.4,0.9,0.8,1.4,1.3c-0.2,0.4-0.3,0.8-0.3,1.3c0,0,0,0,0,0.1
		c-0.3,0.1-0.7,0.3-0.7,0.8c0,0.4,0.4,0.7,0.6,0.9c0,0.6,0,1.4,0.1,2c-0.2,0.3-0.4,0.6-0.1,0.8c0.1,0.1,0.3,0.2,0.5,0.3
		c0.1,0.1,0.1,0.2,0.2,0.3c0.3,0.3,0.6,0.6,0.8,0.9c0.1,0.1,0.1,0.1,0.2,0.2c-0.1,0.4-0.2,1.1,0.3,1.2c0.3,0.1,0.6,0.1,1,0
		c0.2,0.2,0.5,0.4,0.8,0.6c0.4,0.2,0.7,0.5,1.1,0.7c0,0.4,0,1.1,0.4,1c0.3-0.1,0.6-0.1,0.7-0.1c1,0.8,1.8,1.5,1.8,1.7
		c-0.3,0.5-1.6,1.8-2.2,1.8c-0.2,0-0.4,0.1-0.6,0.3c-0.3,0.4-0.3,1.1,0,1.9c-0.3,0.2-1.1,1-0.8,1.6c0.1,0.2,0.3,0.4,0.4,0.6
		c0.2,0.2,0.5,0.5,0.4,0.6c0,0.1-0.1,0.2-0.4,0.3c-0.7,0.3-1.6,0.7-1.8,1.5c-0.2,0.6,0.1,1.3,0.7,2c0,0,0,0,0.1,0.1l-0.4,0.4
		c0,0-1.2,0.3-0.8,1.2c0.4,1,2,1,1.7-0.5l0.4-0.4c0.7,0.5,1.5,0.7,2.1,0.4c0.7-0.2,1.1-0.8,1.1-1.7c0.7,0.3,3.2,1.2,5.5,1.1
		c0.3,0.3,0.7,0.5,1.1,0.4c0.4-0.1,0.5-0.4,0.6-0.6c0.5,0,1.8,0.1,2.9,0c0.2,0.2,0.4,0.4,0.9,0.4c0.5,0,0.5-0.3,0.5-0.6
		c0.3-0.1,0.5-0.2,0.6-0.3c0.4-0.3,1.7-0.4,3.4-0.5c0,0.1,0.1,0.2,0.2,0.3c0.5,0.9,0.9,1.3,1,1.4c0.1,0.1,0.1,0.1,0.1,0.3
		c-0.1,0.3-0.1,0.6,0.1,0.8c0.1,0.2,0.5,0.3,1,0.4l0,0c1,0.1,1.6,0.2,2.1,0.9l0.1,0.1c0.2,0.4,0.4,0.6,0.7,0.7
		c0.3,0.1,0.6-0.1,1.3-0.5c1.1-0.7,2.1-0.1,2.3,0.1c0.1,0.2,0.6,0.9,1.1,0.9c0.3,0,0.6-0.4,0.8-1c0.3-0.2,0.6-0.2,0.9-0.2
		c0.5,0,1.2,0,2.3-0.6c0,0,2.3-1.5,3.6-2.2c0.2,0.4,0.3,0.8,0.4,1.1c0.2,1.2-4.7,3.4-2.8,6.4c0.2,0.4,0.5,0.3,0.5,0.3
		s-0.4-1,0.2-1.7c0.5-0.6,3.1,0.2,4.5-1.5c0.4,1.7,2.2,1.9,2.3,1.9c0.1,0,0.1,0,0.2-0.1l0.6-4.4c0.2,0.6,0.6,1,1,1.2
		c0.5,0.3,1.1,0.2,1.3,0.2c1.4,2.2,3.2,1.6,3.4,1.5c0.8,0,1.3-0.1,1.3-0.4c0-0.1,0.1-0.5-1.3-1.4c-0.2-0.1-0.2-0.2-0.2-0.2
		c0-0.1,0.1-0.1,0.3-0.2c0.6-0.1,1.8,0.3,2.7,2.1c1.4,2.6,4.1,1.8,4.1,1.8c0.1,0,0.1-0.1,0.1-0.1c0-0.1,0-0.1-0.1-0.1
		c-0.6-0.2-0.8-0.9-0.9-1.3c1.6,1.2,3.1,1.8,4.4,1.6c1.5-0.2,2.3-1.2,2.3-1.2c0,0,0-0.1,0-0.2c0-0.1-0.1-0.1-0.2-0.1
		c-1.7,0.5-2.5-0.2-3.3-1.1c0.7-0.1,1.9-0.7,3.4-2.7c0.3-0.1,2.6-0.7,4.7,0c0.2,0.1,0.5,0.2,0.8,0.2c2.7,0.9,8.4,2.8,12.2-0.2
		c2.5-2,3.1-3.2,3.2-4c0-0.2,0-0.3,0-0.4c0.5,0.1,0.8,0.1,0.8,0.1c0,0,0,0,0.1,0c0.8,0.1,2,0.4,2.9,0.7c0.2,0.1,0.4,0.2,0.7,0.3
		c-0.2,0.3-0.6,1,0,1.3c0.7,0.4,2.5-0.7,2.5,0.3c0,1,0.9,0.9,2.3,0.2c0,0,0.7-0.2,0.8,0.2c0.1,0.4,0.5,0.8,1,0.8
		c0.3,0,0.7-0.5,1.1-0.9c0.5,0,1-0.1,1.5-0.1c0.5,0.4,0.9,0.5,1.2,0.2c0.2-0.2,0.3-0.5,0.3-0.7c0.7-0.3,1.2-0.8,1.5-1.4
		c0.4-0.9,0.3-1.7,0.2-2.3c0.2-0.2,0.5-0.5,0.6-1.1c0.1-0.7-0.7-0.6-1.2-1.3c-0.2-0.4-0.4-0.7-0.8-1.1c-0.1-0.2-0.2-0.5-0.2-0.9
		c-0.1-1.1-1.2-1.5-1.4-0.2c-2.7-1.3-6.3-1.1-8.8-0.5c-0.7,0.2-1.4,0.4-2.1,0.6c-2.1,0.6-4.1,1.2-5.1,0.2c0.1-0.3,0.7-1.9,3.7-3
		c2.2-0.8,7.3-2.9,8.2-6.1c1,0.1,8.4,0.4,10.1-2.1c1.6-2.2,3-4.2,1.4-6.1c0.7-0.6,1.3-1.2,1.7-1.8c0.3-0.4,0.4-0.8,0.2-1.1
		c-0.1-0.3-0.4-0.5-0.8-0.7c0.1-0.2,0.4-0.5,1.2-0.6c0.6-0.1,0.7-0.5,0.7-0.6C118.3,85.9,117.7,85.4,117.2,85.2L117.2,85.2z
		 M23.1,88c0.7,0,1,0.1,1.2,0.2c-0.4,0.8-0.5,0.8-1.2,0.4c-0.2-0.1-0.5-0.2-0.7-0.3C22.6,88.1,22.9,88,23.1,88L23.1,88z M104.7,90.2
		c-0.1-0.1-0.2-0.2-0.3-0.2c0.1,0,0.2-0.1,0.2-0.1C104.7,90,104.7,90.1,104.7,90.2L104.7,90.2z M109.7,112.4c0,0.1,0,0.3,0.1,0.4
		c0,0,0.4,1.1-0.1,1.9c-0.3,0.6-0.9,1-1.8,1.3c-2.9,0.9-6.8-0.7-8.9-1.5c-0.3-0.1-0.6-0.2-0.8-0.3c-1.9-0.7-4.2-0.9-4.3-0.9
		c-0.1,0-0.2,0-0.3,0c-1.4-0.3-1.6-0.8-1.6-1.8c0-0.8,0.6-1.2,1-1.3c1.2,0.1,2.8-0.3,4.3-0.8c0.7-0.2,1.4-0.4,2-0.6
		c2.4-0.6,6.1-0.7,8.6,0.7C109.8,110.7,109.7,112.4,109.7,112.4L109.7,112.4z M93,114.5c0,0.1,0,1.2-2.8,3.3
		c-3.4,2.6-8.5,0.9-11.2,0l0,0c-0.3-0.1-0.5-0.2-0.7-0.2c-2.3-0.7-4.6-0.2-5.2,0c0-0.7,0.1-1.7-0.1-2.3c-0.2-0.7,0.5-1.3,1-1.7
		c0.9-0.1,1.5-0.3,2-0.5c0.3,0,0.9,0,1.5-0.3c-0.2,0.4-0.6,1.2-0.1,1.4c0.6,0.2,1.9,0.5,1.4-1.7c0.4,0.1,1.1,0,1.9-0.6
		c0.1,0,0.1-0.1,0.1-0.1c0.8-1,1.4-1,2-1.1c0.4,0,0.8-0.1,1.3-0.3c0,0,0.1,0,0.1,0c1.5-0.9,3.9-1.6,4-1.6c0,0,0,0,0,0
		c0.6,0.3,1.9,0.9,3.1,0.4c0,0,0,0,0,0c0.2,0.2,0.4,0.4,0.7,0.5c-0.5,0.4-0.7,1-0.8,1.8c-0.1,0.6,0.1,1.1,0.5,1.5
		c0.4,0.4,0.9,0.7,1.5,0.9C92.8,114.2,92.9,114.4,93,114.5L93,114.5z M65.9,121.1c-0.3,0.1-0.5,0.4-0.5,0.8c0,0.3,0.1,0.6,0.1,0.9
		c-0.6-0.2-1.1-0.6-1.4-1.3c-1.1-2.2-2.7-2.8-3.8-2.6c-0.2,0-0.4,0.1-0.5,0.2c0.2-0.3,0.3-0.6,0.3-0.9c0.5,0.1,2,0.2,2.7-0.5
		c0.1,0.1,0.2,0.1,0.3,0.1c0.1,0,0.2,0,0.3,0.1c0.9,0.5,3.6,2,4.7,3c0.2,0.2,0.5,0.5,0.7,0.8c0.4,0.4,0.7,0.8,1.2,1.2
		c-0.9-0.1-2-0.7-3.1-1.6C66.5,121,66.2,121,65.9,121.1L65.9,121.1z M50.9,121.3C50.9,121.3,50.9,121.3,50.9,121.3
		C50.9,121.3,50.9,121.3,50.9,121.3L50.9,121.3L50.9,121.3z M51,121C51,121,51,121,51,121C51,121,51,121,51,121
		C51,121,51,121,51,121L51,121z M52.5,121.3c0-0.1-0.1-0.2-0.1-0.4c0.2-0.8,0.5-2.2,0.4-3c0-0.3-0.2-0.6-0.4-0.7
		c-0.4-0.1-0.6,0.1-0.7,0.2c0,0,0.5,3.5-1.6,4.2c-0.6,0.2-1.5,0.2-2.1,0.4c-0.5,0.1-1,0.3-1,0.3c0.2-1.7,3.1-2.3,3.1-4.1
		c0-1.5-1.4-2.9-1.7-3.2c-0.1-0.1-1.9-1.9-2.2-3.9c0,0,0.1-0.1,0-0.1c0-0.2-0.1-0.3-0.1-0.5c0-0.2,0-0.4,0.1-0.7
		c0.5-2,1.9-4.2,4.4-3.6c0.1,0.1,0.8,0.2,1.3,0.8c0.3,0.4,0.4,0.8,0.4,1c0.1,1-1.3,1.3-1.3,1.3c0,0,0-2-1.1-2
		c-0.9,0-1.9,0.9-2.1,1.8c-0.3,1,0.3,1.9,1.4,2.4c0.4,0.2,0.7,0.3,1,0.4c0.6,0.2,1,0.4,1.6,0.6c-0.1,0-0.1,0-0.2,0
		c-0.1,0-0.1,0-0.1,0.1c0,0-0.1,0.2,0.1,0.5c0.2,0.3,0.8,0.6,1.6,0.7c1.7,0.2,3.5,0.7,3.5,2.4c0,1.4-0.7,2-1.1,2.2
		c-0.2-0.6-0.9-2.5-3.4-3.4c-3-1.1-4.1-2.1-4.5-4.2c0,0,0-0.1-0.1-0.1c-0.1,0-0.5-0.3-0.8,0c-0.2,0.1-0.2,0.4-0.2,0.7
		c0,0.1,0.6,2.3,2.7,3.4c0.4,0.2,0.8,0.4,1.2,0.5c1.5,0.6,2.9,1.3,3.5,2.4c-0.2,0.1-0.4,0.4-0.5,0.6l-0.6,4
		C52.7,122.2,52.5,121.8,52.5,121.3L52.5,121.3z M41,119.9c0-0.1-0.1-0.1-0.1-0.2c-0.1-0.1-0.1-0.2-0.2-0.3c-0.1,0-1.7-1.2-3.4-0.1
		c-0.2,0.1-0.4,0.2-0.5,0.3c0-0.1-0.1-0.1-0.1-0.2l-0.1-0.1c-0.7-1.1-1.8-1.3-2.8-1.4c0,0,0,0,0,0c-0.1,0-0.1,0-0.2,0
		c0.1-0.5,0.1-0.8-0.3-1.2c-0.1-0.1-0.4-0.4-0.9-1.2c-0.8-1.4,0.5-3.5,0.9-4.2c0.4-0.6,2.9-2.2,5.2-2.2c1.8,0,5.2,1.2,6.6,1.7
		c0.2,2.5,2.5,4.9,2.6,5c0,0,0.2,0.2,0.5,0.5c-1.3,0.7-3.2,2-3.5,2.1c-0.9,0.4-1.3,0.5-1.8,0.5c-0.4,0-0.9,0-1.5,0.3
		C41.3,119.4,41.1,119.6,41,119.9C41,119.8,41,119.8,41,119.9L41,119.9z M22.6,115.7c-2.7,0.8-6.5-0.9-6.5-0.9
		c-0.3-0.1-0.6-0.1-0.8,0.1c-0.2,0.2-0.4,0.4-0.4,0.7c0,0.3-0.1,0.8-0.5,1c-0.4,0.1-1.2-0.1-1.9-1c-0.4-0.5-0.6-0.9-0.5-1.1
		c0-0.2,0.3-0.5,1.2-0.8c0.6-0.2,0.9-0.5,1-1c0.2-0.7-0.3-1.2-0.7-1.6c-0.1-0.1-0.1-0.1-0.2-0.2c0.1-0.1,0.3-0.4,0.5-0.5
		c0.3-0.2,0.4-0.6,0.3-1c-0.2-0.4-0.2-0.8-0.2-0.9c1.2-0.2,2.8-2.2,2.8-2.2c0.2-0.2,0.2-0.5,0.2-0.8c-0.3-1.3-4.5-3.9-4.5-4
		c-0.9-0.5-1.4-1.1-2-1.8c-0.3-0.3-0.6-0.7-0.9-1c-0.4-0.4-0.5-2.4-0.3-4.3c0.1-1,0.4-1.6,0.9-2c0.8-0.6,2-0.3,2.6-0.1
		c0.3,0.1,0.5,0.1,0.7,0.1c0.1,0,0.2-0.1,0.3-0.1c0.2-0.1,0.3-0.1,0.3-0.1c0,0,0,0,0,0c0.2,0.3,0.2,0.4,0.3,0.5
		c0.1,0.2,0.1,0.4,0.3,0.8c0.2,0.4,0.8,1.2,1.5,2.1c0.5,0.6,1,1.3,1.3,1.7c0.5,0.7,1.3,2.4,2.4,4.8c0.2,0.3,0,1.8-0.3,3.1
		c0,0.2,0,0.3,0,0.5c-0.2,0.5-0.4,1.3-0.1,1.5c0.4,0.2,0.8,0.1,1.2-1c0.1-0.1,0.3-0.2,0.4-0.3c0,0,0,0,0,0c0,0,0.3-0.3,2.4,0.2
		l0.1,0c0.8,0.2,2.1,0.7,2.6,1.2c0.2,0.2,0.5,0.5,0.9,0.9c0.9,0.9,2.1,2.2,3,2.8c0.7,0.5,1.3,0.8,1.9,0.9c-0.4,0.8-0.8,1.9-0.7,2.9
		c-1.9,0.1-3.1,0.3-3.7,0.6c-0.6,0.3-2.8,0.5-4.6,0.3C22.8,115.7,22.7,115.7,22.6,115.7L22.6,115.7z M10.8,91.1
		c-0.4,0.1-0.8,0.2-1.2,0.5C9.4,91.7,9.2,91.8,9,92c-0.5-0.4-0.9-0.8-1.2-1.1c0,0-0.1-0.1-0.1-0.1c0.2-0.3,1.3-0.9,2.3-1
		C10.2,89.8,10.6,90.4,10.8,91.1L10.8,91.1z M14.9,90c2.1-2,2.8-2,3-1.8c0,0.1,0,0.4-0.7,1.5c-0.4,0.7-0.7,1.3-0.7,1.9
		c-0.5,0.2-1,0.4-1.3,0.5c-0.1-0.1-0.2-0.3-0.3-0.6c-0.1-0.2-0.3-0.3-0.4-0.4C14.4,91,14.4,90.5,14.9,90L14.9,90z M31.4,93.8
		c0,0,0.2-0.2,0.2-0.2c0.3-0.4,0.8-1.1,1-1.1c0,0,0.2,0,0.3,0.2c0.4,0.3,0.7,0.7,1.1,1.2c0.7,0.8,1.4,1.7,2.5,2
		c0.1,0,0.9,0.3,1.9,2.5c0.2,0.4,0.5,0.7,0.9,0.8c0,0.3,0.2,0.5,0.4,0.7c1.1,0.9,2.1,1,2.9,1.1c0.7,0.1,1.3,0.1,1.7,0.6
		c1.3,1.3,2.4,2.1,3.5,2.5c0.5,0.2,1.1,0.7,1.7,1.1c-2,0.2-3.6,1.9-4.2,4.5c0,0,0,0.1,0,0.1c-0.7-0.3-1.7-0.6-2.8-0.9
		c0.1-0.2-0.1-0.5-0.2-1c-0.3-0.8-1.4-1.7-1.2-0.9c0,0,0.1,0.4,0.1,0.9c0,0.2,0,0.4,0.1,0.6c-0.8-0.2-1.6-0.3-2.2-0.4
		c0-0.2-0.1-0.4-0.3-0.6c-0.4-0.6-0.6-0.5-0.6-0.2c0,0-0.2,0.5,0,0.8c-1,0.1-2,0.4-2.9,0.8c0.1-0.3,0-0.7-0.1-1.1
		c-0.1-0.5-0.2-1-0.4-0.7c0,0-0.5,0.5-0.4,1.2c0.1,0.5,0.2,0.7,0.4,0.8c-1,0.5-1.8,1.2-2.1,1.6c0,0,0,0,0,0.1
		c-0.5-0.1-1.1-0.3-1.8-0.8c-0.6-0.4-1.4-1.2-2.2-2c0.1-0.5,0.3-1.4,0.1-1.6c-0.3-0.3-0.7,0.1-0.9,0.7c-0.4-0.4-0.7-0.7-0.9-0.9
		c-0.1-0.1-0.3-0.2-0.5-0.3c0-0.4,0-1-0.2-1.1c-0.3-0.1-0.5,0.3-0.5,0.7c-0.6-0.3-1.4-0.6-1.9-0.7l-0.1,0c-0.1,0-0.2,0-0.3-0.1
		c0.1-0.4,0.3-1,0.1-1c-0.2,0-0.7,0.4-0.9,0.8c-0.7-0.1-1.4-0.1-1.9,0.2c0.1-0.6,0.3-1.8,0.3-2.6l0.1-0.1c1.4-1.1,5.8-4.5,6.7-5.3
		c0.3-0.2,0.6-0.5,1-0.8C29.6,95.5,30.7,94.7,31.4,93.8L31.4,93.8z M40.3,98.6c0,0,0.1-0.1,0.1-0.1v-0.1c0.4-0.7,1.3-1.6,2-2.1
		c0.3-0.2,0.5-0.3,0.5-0.3c0,0,0.1,0,0.1,0.1c0.4,0.4,0.8,0.5,1.1,0.4c0.3,0,0.5-0.1,0.7-0.3c1.1-0.7,2-0.4,2-0.4
		c0.1,0,0.2,0.1,0.3,0.1c1.6,0,2.1,0.9,3.1,2.3c0.2,0.3,0.4,0.6,0.6,0.9c1,1.5,3.3,2.6,5.4,3.4c0,0,0,0-0.1,0.1c0,0-0.4,0.3,0,0.7
		c0.4,0.5,1.3,1.7,1.5,1.4c0.1-0.3-0.2-1.4-0.4-1.8c0.2,0.1,0.4,0.2,0.7,0.2c0.4,0.2,0.9,0.3,1.2,0.5c2.4,1,4.3,1.3,6.7-0.2
		c1.7-1.1,2.4-0.6,2.8,0c0.6,0.8,1.5,1.2,2.5,1.6c0.4,0.2,0.9,0.4,1.3,0.6c0.5,0.3,0.5,0.5,0.5,0.5c0,0,0,0,0,0h0l0,0c0,0,0,0,0,0
		c0,0,0,0.1,0,0.1c0,0-0.5,1.6-1.1,3.8c-0.3,1.2-1,1.3-1.4,1.3c-3.8-1.6-6.2,0.3-7.7,1.5c-0.6,0.5-1.2,0.9-1.6,0.9
		c-0.3,0-0.6-0.1-0.8-0.3c-0.1-0.1-0.1-0.2-0.2-0.2c-0.1-0.2-0.3-0.4-0.4-0.6c-0.1-0.2-0.2-0.3-0.3-0.5c-0.3-0.5-0.6-1.1-1-1.7
		c-1-1.4-4.3-3.3-6.1-4.2c-0.3-0.4-0.8-0.7-1.4-0.9c-0.7-0.7-2-1.8-3-2.2c-0.9-0.4-2-1.2-3.2-2.3c-0.4-0.4-0.9-0.6-1.3-0.7
		c-0.1-0.6-0.3-1.5-0.6-1.5c-0.3,0-0.6,0.8-0.7,1.3c-0.7-0.1-1.3-0.2-2.1-0.9c-0.1-0.1-0.1-0.1-0.1-0.2
		C40.2,98.8,40.2,98.7,40.3,98.6L40.3,98.6L40.3,98.6z M81.8,98.1C81.8,98.1,81.8,98.1,81.8,98.1c0.1,0,0.1,0,0.2,0
		c-0.1,0.3-0.3,0.8,0.3,0.8c0.8,0,1.4-0.5,0.7-1.5c0.3-0.5,0.8-1.3,0.8-1.3c0.1-0.2,0.1-0.3,0.1-0.5c0-0.1,0-0.2,0-0.3
		c0.1,0,0.3,0,0.5,0.1c0.3,0.1,0.7,0.1,0.9-0.2c0.3-0.3,0.5-0.3,0.5-0.3c0,0,0.2,0.2,0.2,0.3c0.1,0.3,0.5,0.5,0.8,0.5
		c0,0,0.1,0,0.1,0c0,0.1,0,0.4-0.2,1.1c-0.1,0.5-0.2,1-0.2,1.4c-0.2,0.2-0.8,0.5-1.5,0.6c-0.3,0.1-0.6,0.4-0.6,0.7
		c-0.1,0.3,0.1,0.7,0.4,0.8c0,0.2-0.2,0.7-0.2,0.9c-0.3,0.8-0.6,1.8-0.2,2.8c0.1,0.2,0.1,0.2-0.5,0.6c-0.5,0.4-1.3,1-1.8,2
		c-0.7,0.9-2.4,1.7-4.6,2.3c-2,0.5-2.7,2.9-2.7,3c-0.1,0.2,0,0.4,0,0.6c-0.8,0.3-2.8,0.7-3.2-0.5c0.5-0.3,1-0.8,1.2-1.7
		c0.6-2,1-3.6,1.1-3.7c0-0.1,0.1-0.3,0.1-0.5c0.3-0.4,0.6-1.2,0.9-2.8c0.4-1.9,1.6-2.6,3.5-3.8l0.8-0.5C81,97.9,81.7,98.1,81.8,98.1
		C81.8,98.1,81.8,98.1,81.8,98.1L81.8,98.1z M53.2,108c0-0.1,0-0.1,0-0.2c1.7,1,3.9,2.3,4.6,3.3c0,0,0,0,0,0
		c-0.6-0.2-1.3-0.2-2.2,0.1c-2.6,0.8-3.5,0.5-5-0.2c-0.3-0.1-0.7-0.3-1.1-0.5c-0.7-0.3-0.9-0.7-0.8-1.2c0.2-0.6,0.8-1.1,1-1.1
		c0,0,0.6,0.3,0.4,1.5c-0.1,0.5,1.6,0.5,2.2,0C52.8,109.5,53.2,108.8,53.2,108L53.2,108z M18.2,96.7c-0.3-0.5-0.8-1.1-1.3-1.8
		c-0.5-0.7-1.1-1.4-1.3-1.8c2-0.9,3.9-1.4,4.5-1.1l0,0c0.6,0.4,1.1,0.6,1.1,1c0,0.4-0.2,1.4-2.9,3.9C18.3,96.8,18.3,96.8,18.2,96.7
		L18.2,96.7z M56,112.2c1.6-0.5,2.3,0.1,3.1,1.1c0.2,0.4,0.4,0.7,0.7,1c0.6,0.8,1.2,1.6,2.2,1.7c0.5,0.1,0.7,0.2,0.8,0.2
		c0,0,0,0.1-0.1,0.2c0,0,0,0.1,0,0.1c0,0.1,0,0.1,0,0.1c-0.6,0.4-1.8,0.8-3.6,0.2c0,0-0.1,0-0.1,0c0,0-0.4,0.3-0.2,1.1
		c0.1,0.2,0,0.4,0,0.5c-0.1,0.2-0.6,0.3-1,0.3c-0.2,0-0.4,0-0.6,0.1c0.4-0.5,0.8-1.3,0.8-2.4c0-2.4-1.5-3.3-4-3.6
		C54.4,112.6,55.1,112.4,56,112.2L56,112.2z M20.6,101.3c-0.5-1.2-1.2-2.5-1.7-3.5c1.2-1,2-1.9,2.6-2.7c0.4,0,1.6,0,2.1-1.1
		c0.1-0.2,0.2-0.5,0.3-0.7c0.5,0.7,1.2,1.7,1.5,2.5c0.1,0.4,0.4,0.8,0.9,1.1C24.6,98.1,21.7,100.4,20.6,101.3L20.6,101.3z
		 M22.6,93.6C22.5,93.8,22.2,94,22,94c0.2-0.4,0.3-0.8,0.2-1.1c-0.1-0.9-1-1.4-1.6-1.8l0,0c-0.7-0.4-1.9-0.2-3,0.1
		c0.1-0.3,0.3-0.6,0.5-1c0.1-0.1,0.2-0.3,0.3-0.5c0.1-0.1,0.3-0.1,0.4-0.2c2.4-0.9,2.9-0.4,4,0.6C23.4,90.9,23.3,91.9,22.6,93.6
		L22.6,93.6z M59.2,119.7c0,0.1,0,0.1-0.1,0.2c0,0.2-0.1,0.8,0.7,1.3c0,0,0,0,0.1,0c-0.2,0.1-1.3,0.3-2.2-1.2
		C58.2,120,58.8,120,59.2,119.7L59.2,119.7z M69.2,120.2C69.2,120.2,69.2,120.2,69.2,120.2C69.2,120.2,69.2,120.2,69.2,120.2
		c-0.1,0-0.3-0.1-0.5-0.1c-0.6-0.6-1.7-1.3-2.7-1.9c0-0.2,0.1-0.6-0.1-0.9c-0.2-0.3-0.9,0-1.2,0.1c-0.5-0.3-1-0.5-1.1-0.6
		c0,0,0,0,0,0c0,0,0-0.1,0-0.1c0.1-0.3,0.2-0.7,0-1.1c-0.2-0.4-0.7-0.6-1.5-0.7c-0.1,0-0.3-0.1-0.4-0.1c0.6-0.1,1.1-0.6,1.8-1.1
		c1.6-1.2,3.5-2.7,6.9-1.3c0,0,0,0,0,0c0,0,0.2,0,0.5,0c0.2,0.4,0.6,1.1,1.8,1.2c-0.6,0.6-0.6,1.2-0.5,2.1c0.1,0.7,0.1,1.8,0.1,2.4
		C70.4,120.5,69.3,120.2,69.2,120.2L69.2,120.2z M90.9,108.2c-0.5,0.1-1.6,0.2-2.4-0.3c0.5-5.2,1-5.9,1.6-6.6c0.3-0.4,0.7-0.9,1.1-2
		c1-2.5,2.9-2.9,5.9-3.6c0,0,0.3-0.1,0.3-0.1c2-0.5,3.2,0.3,3.6,0.6c-0.3,0.5-0.7,1.5-0.4,2.4c0.2,0.7,0.8,1.2,1.8,1.5
		c-1,1.7-3.6,3.3-7.2,4.6C92,105.8,91.2,107.5,90.9,108.2L90.9,108.2z M102.8,99.1c-0.7-0.2-1.1-0.5-1.3-0.9
		c-0.2-0.5,0.2-1.2,0.3-1.5c2.7,0.6,5-2,6.5-3.7c0.3-0.4,0.6-0.7,0.8-0.9c1.5-1.5,2.9-2.5,4.7-1c1.8,1.5,1.2,2.6-0.8,5.6
		c-1.1,1.5-6.1,1.9-9.4,1.7C103.3,98.5,103,98.8,102.8,99.1L102.8,99.1z M105.2,92.1c0.9-1.3,2.1-1.5,2.4-1.4c0.1,0.2,0.1,0.8,0,1.3
		c0,0.1,0,0.3,0,0.5c-0.2,0.2-0.4,0.5-0.7,0.7c-1.5-0.5-1.8-0.8-1.9-0.9C105.1,92.3,105.1,92.2,105.2,92.1L105.2,92.1z M114.5,90.5
		c-0.5-0.4-1-0.7-1.5-0.8c0-1,0-1.7,0.2-2c0.5,0.2,1,0.4,1.5,0.5c0.3,0.1,1.3,0.4,1.5,0.6c0,0,0,0.1-0.1,0.2
		C115.7,89.5,115.2,90,114.5,90.5C114.5,90.5,114.5,90.5,114.5,90.5L114.5,90.5z M115.7,86.2c-0.2-0.4-0.3-0.7-0.3-0.9
		c0.2,0,0.3,0.1,0.5,0.2c0.2,0.2,0.5,0.4,1,0.6c0,0,0,0,0,0c-0.4,0.1-0.8,0.3-1,0.5C115.8,86.5,115.8,86.3,115.7,86.2L115.7,86.2z
		 M7.8,88.3c0.1-0.1,0.2-0.1,0.3-0.1s0.2,0,0.3,0.1c0.1,0.1,0.1,0.2,0.1,0.3c0,0.2-0.2,0.4-0.4,0.4c-0.1,0-0.2,0-0.3-0.1
		c-0.1-0.1-0.1-0.2-0.1-0.3C7.7,88.4,7.8,88.3,7.8,88.3L7.8,88.3z"/>
	<path class="st0" d="M27.9,97.8c-0.5,0.1-1.5,1.5-0.8,1.6c0,0,1.3-0.8,1.6-1.2C28.9,97.9,28.4,97.7,27.9,97.8L27.9,97.8z"/>
	<path class="st0" d="M29,99.9c0.6,0.2,0.9-0.3,1.2-0.8c0.3-0.5,0-1.3-0.5-0.7C29.7,98.4,28.4,99.7,29,99.9L29,99.9z"/>
	<path class="st0" d="M31.3,100.7c0.4-0.5,0.7-1.2,0.6-1.8c-0.1-0.5-0.4-0.3-0.4-0.3s-1.1,1.2-1,1.6
		C30.6,100.7,30.9,101.2,31.3,100.7L31.3,100.7z"/>
	<path class="st0" d="M34,101.2c0.6-0.1,0.4-0.8,0.2-1.5c-0.2-0.6-0.3-1.1-0.6-0.8c0,0-0.4,0.4-0.4,1.1
		C33.3,100.7,33.5,101.4,34,101.2L34,101.2z"/>
	<path class="st0" d="M48.9,23.6c0,0-0.6,0.2-0.5,1c0.1,0.8,0.3,1.2,1.3,1.1c1-0.1,0.3-1.9,0.1-2.1C49.6,23.4,48.9,23.6,48.9,23.6
		L48.9,23.6z M49.2,25c0,0-0.1-0.2-0.1-0.5c0-0.1,0-0.2,0-0.2c0.1,0,0.1,0,0.2,0c0.1,0.2,0.2,0.5,0.2,0.7C49.3,25,49.2,25,49.2,25
		L49.2,25z"/>
	<path class="st0" d="M48.8,26.1c0,0-0.4,0.3-0.3,0.8c0.1,0.5,0,1.1,0.8,1c0.8,0,0.9-0.6,0.8-1.3C50.1,26.1,49.3,25.8,48.8,26.1
		L48.8,26.1z M49.5,27.3c0,0-0.1,0-0.2,0c0,0,0,0,0,0c0-0.1,0-0.1,0-0.2c0-0.1,0-0.1,0-0.2c0-0.1,0-0.1,0-0.2c0,0,0.1,0,0.1,0
		c0.1,0,0.1,0.1,0.1,0.1C49.5,27.1,49.5,27.2,49.5,27.3L49.5,27.3z"/>
	<path class="st0" d="M48.9,28.4c0,0-0.9,1-0.3,1.4c0.6,0.3,1.2,0.5,1.5-0.4C50.3,28.4,49.7,27.8,48.9,28.4L48.9,28.4z M49.4,29.2
		c0,0.1-0.1,0.1-0.1,0.2c0,0-0.1,0-0.1,0c0.1-0.1,0.1-0.2,0.2-0.3c0,0,0,0,0,0C49.4,29,49.4,29.1,49.4,29.2L49.4,29.2z"/>
	<path class="st0" d="M50.4,22.6c0,0-0.6,0.1-0.4,0.7c0.2,0.6,0.4,1.6,1.2,1.3c0.8-0.3,0.6-0.9,0.4-1.7
		C51.3,22.1,50.8,22.4,50.4,22.6L50.4,22.6z M51,24C51,24,51,24,51,24c-0.1,0-0.2-0.2-0.3-0.7l0.1-0.1c0,0,0.1,0,0.1,0c0,0,0,0,0,0
		C50.9,23.4,51.1,23.8,51,24C51.1,24,51,24,51,24L51,24z"/>
	<path class="st0" d="M50.5,25.6c0,0-0.3,1.4,0.5,1.4c0.8,0,1.2-0.2,1.2-1.1C52.1,24.6,50.6,24.4,50.5,25.6L50.5,25.6z M51.4,26.3
		c0,0-0.1,0-0.3,0c0-0.1,0-0.4,0-0.5c0,0,0,0,0-0.1c0-0.1,0.1-0.2,0.1-0.2c0,0,0,0,0.1,0c0,0,0.1,0.1,0.1,0.4
		C51.4,26.2,51.4,26.3,51.4,26.3L51.4,26.3z"/>
	<path class="st0" d="M51.2,27.4c0,0-0.7,0.2-0.7,0.7c0,0.5-0.3,1.5,0.5,1.4s1.5-0.3,1.3-1.5C52.1,26.9,51.7,27.2,51.2,27.4
		L51.2,27.4z M51.6,28.6c-0.1,0.1-0.2,0.1-0.4,0.2c0-0.1,0-0.1,0-0.2c0-0.1,0-0.3,0-0.4c0,0,0.1-0.1,0.2-0.1c0.1,0,0.1,0,0.2-0.1
		c0,0,0,0.1,0,0.2C51.7,28.4,51.6,28.5,51.6,28.6L51.6,28.6z"/>
	<path class="st0" d="M52.1,20.9c0,0-0.6,0.4-0.4,1.4c0.3,1,0.9,1,1.2,0.8c0.4-0.2,0.7-0.4,0.4-1.4C53,20.7,52.5,20.4,52.1,20.9
		L52.1,20.9z M52.5,21.5C52.5,21.5,52.5,21.5,52.5,21.5C52.5,21.5,52.5,21.5,52.5,21.5C52.5,21.5,52.5,21.5,52.5,21.5L52.5,21.5z
		 M52.7,22.4c0,0-0.1,0-0.1,0.1c0,0,0,0,0,0c0,0-0.1-0.1-0.2-0.4c-0.1-0.4,0-0.6,0.1-0.6c0,0.1,0.1,0.2,0.2,0.4
		C52.7,22.2,52.7,22.4,52.7,22.4L52.7,22.4z"/>
	<path class="st0" d="M52.3,24.4c0.2,0.7,0,1.6,0.8,1.2c0.9-0.4,0.9-0.7,0.7-1.6C53.6,22.8,52.1,23.7,52.3,24.4L52.3,24.4z
		 M53.2,24.7c0,0,0,0-0.1,0.1c0-0.2,0-0.3-0.1-0.5c0,0,0.1-0.1,0.1-0.1C53.2,24.6,53.2,24.7,53.2,24.7L53.2,24.7z"/>
	<path class="st0" d="M52.6,26.9c0,0.9,0.1,1.6,0.8,1.4c0.7-0.2,1-0.6,0.9-1.7C54.1,25.3,52.6,26,52.6,26.9L52.6,26.9z M53.4,27.5
		c0-0.2,0-0.5-0.1-0.7c0,0,0-0.1,0.1-0.1c0.1-0.1,0.1-0.1,0.1-0.1c0,0,0,0.1,0,0.1C53.6,27.3,53.6,27.5,53.4,27.5L53.4,27.5z"/>
	<path class="st0" d="M74.1,31.2c-0.2,0-0.4,0.2-0.8,0.5L73.1,32c-0.5,0.5-1.6,1.7-1.9,1.7c-0.1,0-0.1,0.1-0.1,0.2
		c0,0.1,0.1,0.1,0.1,0.1h4.7c0.1,0,0.1,0,0.1-0.1c0,0,0-0.1,0-0.1c-0.4-0.5-1.4-1.9-1.5-2.2C74.4,31.4,74.3,31.2,74.1,31.2
		L74.1,31.2z M73.5,32.9c0.1-0.1,0.3-0.3,0.3-0.3l0.1-0.1c0.1,0.1,0.2,0.2,0.3,0.4L73.5,32.9L73.5,32.9z"/>
	<path class="st0" d="M10.4,76.8c2.8,9.2,4.8,10.9,4.1,5.7c-0.7-5.2-1.6-9.4-1.1-10.2c0.6-0.9,0.2-2.2-0.1-3.5
		c-0.3-1.3,0.5-1.6-0.6-5c-1.1-3.3,0.1-2.5,0.1-4.2c-0.1-1.7-0.6-1.6-0.4-3.7c0.2-2.1,0.3-5,0.3-5s-1.8-0.1-2,1.1
		c-0.2,1.2-0.2,15.2,0.7,20.1c0.9,5-1.6,0.1-2-6c-0.4-6.1-0.1-13-0.1-13s0.3-1.6-1.7-2.1C7.6,51,7.6,67.5,10.4,76.8L10.4,76.8z"/>
	<path class="st0" d="M18.5,72.6c0-3.4-1.3-5-0.7-7c0.6-2.1,0.9-2.8-0.1-4.5s-0.6-1.6-0.4-3.7c0.3-2.1-0.3-5.2-0.1-6.9
		c0,0-1-0.8-1.1,0.1c-0.1,0.9,0.3,12.5,0.9,17.1c0.6,4.6-0.6,2.7-1-1.2C15.7,63.8,15,51,15,51s-1.3-1-1.6-0.1c0,0-0.3,15.4,2.6,21.3
		C19,78.2,18.5,76,18.5,72.6L18.5,72.6z"/>
	<path class="st0" d="M22.5,69c-0.5-1.8-0.5-2.2-0.4-3.8c0.1-1.6-0.6-2.9-0.8-5.1c-0.3-2.2-0.5-7.5-0.4-10.4c0,0-0.4-0.5-1.2,0.1
		c0,0,0.1,7.7,0.4,10.6c0.4,2.8-1.1-0.2-1.2-5.1c-0.1-4.9,0-5.9-0.9-5c0,0-0.3,15,3.9,19.6C21.8,69.8,23,70.8,22.5,69L22.5,69z"/>
	<path class="st0" d="M21.7,48.6c0,0-0.5,13.7,3.3,17.5c3.8,3.8,0.9,0.2,0.9-4.2c0-5.1-1.1-4-1.1-5.2c0,0-0.2-5.2-0.4-6.7
		c-0.2-1.6-1.3-2.3-1,0.2c0.4,2.5,1.1,9,0.1,9.1c-0.9,0.1-0.8-4.1-0.9-6.6C22.6,50.2,23,48.8,21.7,48.6L21.7,48.6z"/>
	<path class="st0" d="M27.1,48.1c0,0-0.6-0.6-0.4,1.8c0.2,2.4,0.7,4.7-0.1,4.7c-0.9-0.1-0.5-3-0.6-4.3c-0.1-1.2-0.4-2.7-0.9-1.8
		c0,0,0.1,9.3,2.7,13.1c2.6,3.8,2.6,0.9,1.3-1.3c-1.2-2.3-1.4-5.1-1.4-7.2S27.1,48.1,27.1,48.1L27.1,48.1z"/>
	<path class="st0" d="M29.5,57.2c1.6,2.3,1.1,0.4,0.8-2c-0.4-2.3-0.4-6-0.3-7.7c0,0-0.4-0.4-0.9,0c0,0,0.5,4.2,0.1,4.1
		c-0.4-0.1-0.6-1.6-0.7-3c-0.1-1.5-0.3-1.1-0.7-0.8C27.8,47.8,27.9,54.9,29.5,57.2L29.5,57.2z"/>
	<path class="st0" d="M8.7,36.6c0,0-0.5,2.9-0.6,7.3c-0.2,4.4,0.1,5,1.8,5.1c2.2,0.1,2.6-1.4,2.9-4.8c0.4-3.7,0.4-5.7,0.5-6.2
		c0.1-0.6-1.2-2.1-1.4,0.2c-0.2,2.3-0.1,9.4-1.5,9.1c-1.4-0.3-1.1-3.9-0.8-6.4c0.3-2.5,1.1-5.4,0.1-5.6C8.7,35.2,8.7,36.6,8.7,36.6
		L8.7,36.6z"/>
	<path class="st0" d="M14,38.1c0,0-1.8,10.5,0.1,10.6c2.9,0.1,2.4-2.9,2.7-6.2c0.3-3.3,0.6-4.2-0.1-4.2s-0.9,3.2-1,4.9
		c-0.1,1.7,0,3.9-0.8,3.8c-0.8-0.1-0.8-2.5-0.5-4.6C15,37.6,14.7,37.1,14,38.1L14,38.1z"/>
	<path class="st0" d="M18.4,39.2c0,0-0.2-0.5-0.6-0.4c0,0-0.3,3.7-0.5,5.9c-0.1,2.2,0.3,3.2,1.7,3.2s1.3-2.5,1.4-4.6
		c0.1-2.1,0.6-3.9,0-4.1c-0.6-0.2-0.6,1.4-0.7,2.7c-0.1,1.4-0.2,4.4-0.8,4.4c-0.6,0-0.9-0.7-0.8-2.9C18.2,41.2,18.4,39.2,18.4,39.2
		L18.4,39.2z"/>
	<path class="st0" d="M59.4,48c0.5-0.1,0.4-0.4,0.8,0c0.4,0.4,0.5,0.5,1,0.4c0.5-0.1,1.1,0.2,1.4,0.5c0.3,0.3,0.7,0.2,0.7,0.5
		c-0.1,0.3-0.5,0.6,0.6,0.8c1.1,0.2,1.6,0.4,1.9,0c0.3-0.4,0.8-0.4-0.1-0.9c-0.9-0.5-1.3-0.5-2-1.2c-0.8-0.7-0.7-0.7-1.2-0.9
		c-0.5-0.2-1.1-0.5-1.8-0.3c-0.8,0.2-1.7,0.2-1.7,0.2s-0.3,0.2-0.1,0.5C59,47.9,58.9,48.2,59.4,48L59.4,48z"/>
	<path class="st0" d="M64.4,50.9c-0.4,0-0.6-0.3-0.9-0.3c0,0-0.6-0.1-0.3,0.4c0.3,0.5,0.6,0.6,0.9,0.5S64.7,50.9,64.4,50.9
		L64.4,50.9z"/>
	<path class="st0" d="M67.1,51.2c0,0,0.7,0,1.2-0.3c0.4-0.2,0.7,0.1,1.1,0.2c0.4,0.1,0.7,0.1,0.9-0.4c0.3-0.4-0.1-0.7-0.4-1
		c-0.3-0.3-0.8-0.3-1.2-0.1c-0.4,0.2-0.3,0.3-0.7,0.4C67.6,50.1,66.6,51.1,67.1,51.2L67.1,51.2z"/>
	<path class="st0" d="M71.6,51.5c0.2,0,0.6,0.1,0.8,0.1c0.2,0,0.5,0,0.2-0.6c-0.3-0.5-0.2-0.7-0.8-0.6c-0.6,0.1-0.5,0.3-0.5,0.3
		S71.4,51.5,71.6,51.5L71.6,51.5z"/>
	<path class="st0" d="M73.8,58.3c0.1,0.1,0.4,0.3,0.5-0.1c0.1-0.4,0.1-1-0.7-0.8c0,0-0.3,0.2-0.1,0.4C73.7,58.1,73.7,58.2,73.8,58.3
		L73.8,58.3z"/>
	<path class="st0" d="M28.2,41.4c-0.9,6.4,1.7,4.1,1.7,4.1c0.1-1.6,0.4-3.8,0.4-3.8c-0.2-0.3-0.5-0.2-0.6,0.6
		c-0.1,0.8-0.1,2.7-0.7,2.5c-0.6-0.2-0.1-3.5-0.4-3.6C28.3,41.2,28.2,41.4,28.2,41.4L28.2,41.4z"/>
	<path class="st0" d="M25.1,40.7c0,0-0.5,3.1-0.5,4.1c0,1,0.5,1.7,1.8,1.6c1.3-0.1,1-1.8,1.1-3.1c0.1-1.4,0.2-2.2,0.2-2.2
		c-0.6-0.2-0.6-0.1-0.8,1.7c-0.2,1.8-0.2,2.5-1,2.6s-0.4-3.3-0.3-4.1C25.8,40.5,25.1,40.7,25.1,40.7L25.1,40.7z"/>
	<path class="st0" d="M21.6,39.9c0,0-0.5,3.1-0.5,5.5s2.7,1.7,2.9-0.1c0.1-1.8,0.6-4.9,0.6-4.9c-0.9-0.7-1,1.1-1.1,2.7
		c-0.2,1.6-0.2,2.6-1.1,2.4c-0.9-0.2-0.3-4.5-0.2-5.3C22.2,39.5,21.6,39.9,21.6,39.9L21.6,39.9z"/>
	<path class="st0" d="M20.3,96.6c-0.4,0.8-0.2,1,0.3,1.1c0.5,0.1,0.6-1.3,0.6-1.3C21.1,95.8,20.8,95.8,20.3,96.6L20.3,96.6z"/>
	<path class="st0" d="M22.2,96.2c0,0-0.6-0.1-0.5,0.9c0.1,1,0.6,1.1,0.9,0.9c0.2-0.2,0.2-1.1,0.2-1.3C22.7,96.5,22.5,95.9,22.2,96.2
		L22.2,96.2z"/>
	<path class="st0" d="M23.5,96c0,0-0.1,0.8,0.2,1.3c0.4,0.5,1,0.8,0.8-0.3C24.3,95.9,24.1,95.6,23.5,96L23.5,96z"/>
	<path class="st0" d="M13.4,94.3c-0.2-0.1-0.5-0.2-0.7,0.2c0,0-0.2,0.6,0.4,0.6C13.8,95,13.7,94.4,13.4,94.3L13.4,94.3z"/>
	<path class="st0" d="M10.9,95.8L10.9,95.8c0,0.1,0,0.5,0.3,0.5c0.3,0,0.4-0.2,0.4-0.4C11.6,95.7,11.1,95.4,10.9,95.8L10.9,95.8z"/>
	<path class="st0" d="M11.7,99c0,0-0.4,0.4,0.1,0.7c0.5,0.3,0.6,0.2,0.5-0.4C12.2,98.7,12,98.8,11.7,99L11.7,99z"/>
	<path class="st0" d="M14.6,98.9c0,0,0.4,0.2,0.4,0.1c0.1-0.2-0.1-0.4-0.1-0.4S14.3,98.4,14.6,98.9L14.6,98.9z"/>
	<path class="st0" d="M15.1,101.3c0,0-0.2,0.6,0.3,0.6c0.5,0.1,0.5-0.4,0.3-0.6C15.5,101.1,15.1,101.2,15.1,101.3L15.1,101.3z"/>
	<path class="st0" d="M17.5,102c0,0,0.4,0.1,0.4,0c0-0.1,0.1-0.3-0.1-0.4C17.7,101.5,17.3,101.6,17.5,102L17.5,102z"/>
	<path class="st0" d="M17,110.9c0,0,0.9-2-0.4-1.7c0,0-0.6,0.4-0.5,1.4c0,0-0.6-0.2-0.2,0.6c0.4,0.8,0.7,1.6,1.5,0.8
		C18.4,111.3,17,110.9,17,110.9L17,110.9z"/>
	<path class="st0" d="M20.1,112.3c0,0-0.7,0.6-0.5,0.8c0.2,0.3,1.1,0.4,1.2,0C20.9,112.8,20.4,112,20.1,112.3L20.1,112.3z"/>
	<path class="st0" d="M23.2,112.8c0,0-0.8,0.2-0.4,0.7c0.4,0.4,1.2,0.5,1.2,0.4C24,113.8,24.4,112.6,23.2,112.8L23.2,112.8z"/>
	<path class="st0" d="M20.8,109.2c0,0-0.9,0.5-0.5,0.9c0.4,0.4,1-0.3,1-0.3S21.5,109.1,20.8,109.2L20.8,109.2z"/>
	<path class="st0" d="M23.6,108.3c0.6,0.2,0.9-0.3,0.9-0.3s-0.5-1.1-1-0.7C23.6,107.3,23,108,23.6,108.3L23.6,108.3z"/>
	<path class="st0" d="M27.4,112.4c0.6,0.3,1,0,1,0s0.4-0.7-1.2-1C27.2,111.4,26.8,112.1,27.4,112.4L27.4,112.4z"/>
	<path class="st0" d="M36.5,112c0-0.6-0.7-0.4-0.7-0.4s-0.4,0.1-0.5,0.4c0,0.3,0.5,0.4,0.5,0.4S36.5,112.6,36.5,112L36.5,112z"/>
	<path class="st0" d="M36.5,115.6c-0.3-0.2-0.7,0.2-0.7,0.2s-0.2,0.8,0.6,0.8c0.8,0,0.8-0.5,0.8-0.5S37.2,116,36.5,115.6L36.5,115.6
		z"/>
	<path class="st0" d="M40.7,114.4c0-0.5-0.5-0.8-0.9-0.7c0,0-0.8,0.1-0.9,0.7c-0.1,0.7,1.1,0.7,1.1,0.7S40.8,114.9,40.7,114.4
		L40.7,114.4z"/>
	<path class="st0" d="M39.8,116.9c0,0,0,0.6,0.7,0.6s0.6-0.5,0.6-0.5S40,116.4,39.8,116.9L39.8,116.9z"/>
	<path class="st0" d="M44,114.6c0.8,0,0.6-0.6,0.6-0.6s-0.2-0.3-0.8-0.3c-0.5,0-0.6,0-0.6,0.4C43.2,114.1,43.2,114.6,44,114.6
		L44,114.6z"/>
	<path class="st0" d="M36.3,101.5c0.5-0.1,0.1-1.5,0.1-1.5s-0.3-0.9-0.6-0.8c0,0-0.7,0-0.4,1.1C35.7,101.5,35.9,101.6,36.3,101.5
		L36.3,101.5z"/>
	<path class="st0" d="M38,100.9c0.3,0.4,0.6,0.5,0.9,0.3c0.4-0.2-0.7-1.9-0.7-1.9s-1-0.6-0.9,0C37.3,99.3,37.7,100.4,38,100.9
		L38,100.9z"/>
	<path class="st0" d="M24.5,100.5c-0.3,0-1.5,0.8-1.1,1c0,0,0.6,0.2,1-0.3S24.9,100.5,24.5,100.5L24.5,100.5z"/>
	<path class="st0" d="M26.4,101.4c0,0-1.4,1.3-0.8,1.6c0.5,0.3,1-0.5,1.2-1C26.9,101.4,26.7,101.2,26.4,101.4L26.4,101.4z"/>
	<path class="st0" d="M27.7,103.5c0.2,0.4,0.5,1,0.9-0.1c0.4-1,0.2-1.1-0.1-0.8C28.5,102.6,27.6,103.1,27.7,103.5L27.7,103.5z"/>
	<path class="st0" d="M31.1,103.9c0.2-1.3,0-1.1-0.3-0.8c0,0-0.9,0.7-0.6,1C30.4,104.5,30.8,105.2,31.1,103.9L31.1,103.9z"/>
	<path class="st0" d="M33.5,105.7c0.7,0.1,0.5-1,0.3-1.8c-0.2-0.8-0.4-0.8-0.6-0.8c0,0-0.4-0.1-0.4,0.8
		C32.9,104.9,32.8,105.6,33.5,105.7L33.5,105.7z"/>
	<path class="st0" d="M35.9,103.6c0,0-0.7,1.5,0.2,2c0.9,0.6,0.6-0.5,0.4-1.1C36.4,103.9,36.1,103.2,35.9,103.6L35.9,103.6z"/>
	<path class="st0" d="M38.6,103.4c0,0-0.5-0.1-0.3,0.7c0.2,0.8,0.4,1.5,1.2,1.3C40.2,105.3,39.1,103.7,38.6,103.4L38.6,103.4z"/>
	<path class="st0" d="M42.7,105.3c0.4-0.8-1.6-2.3-1.9-2.1c0,0-0.6,0.3,0,1C41.4,104.8,42.3,106.1,42.7,105.3L42.7,105.3z"/>
	<path class="st0" d="M45.2,104.8c0.5-0.3-0.8-1.5-0.8-1.5s-0.9-1-1.1-0.7c0,0-0.5,0.6,0.2,1.3C44.3,104.6,44.7,105.1,45.2,104.8
		L45.2,104.8z"/>
	<path class="st0" d="M31.5,107c0,0-1.3,1.8-0.5,2.2c0.8,0.3,0.9-1.3,0.9-2C31.8,106.5,31.5,107,31.5,107L31.5,107z"/>
	<path class="st0" d="M43.7,106.6c0,0,0.5,0.9,0.6,1.3c0.1,0.4,0.5,1,0.9,0.4c0.4-0.6,0.2-0.8-0.3-1.3
		C44.5,106.5,43.4,106.1,43.7,106.6L43.7,106.6z"/>
	<path class="st0" d="M16.5,32.7c0,0-1.3-0.3-1.8,1.1c-0.5,1.4-0.2,2,0.1,2c0.3-0.1,0.5-1.4,0.8-1.3c0.4,0.1-0.4,1.4,0.1,1.5
		c0.5,0.1,0.7-1.4,1.1-1.2c0.4,0.1-0.4,1.4,0.2,1.5C17.6,36.4,18.4,33.2,16.5,32.7L16.5,32.7z"/>
	<path class="st0" d="M20.3,33.9c0,0-1.2-0.2-1.6,1.1c-0.4,1.3-0.1,1.8,0.2,1.8c0.3-0.1,0.4-1.3,0.7-1.2c0.3,0.1-0.3,1.2,0.1,1.4
		c0.5,0.1,0.6-1.3,0.9-1.2c0.4,0.1-0.3,1.3,0.2,1.4C21.4,37.3,22.1,34.4,20.3,33.9L20.3,33.9z"/>
	<path class="st0" d="M12.8,34.7c0.7,0.2,2-3.5-0.3-4.3c0,0-1.7-0.5-2.4,1.2c-0.8,1.7-0.4,2.4,0,2.3c0.4-0.1,0.7-1.7,1.2-1.5
		c0.5,0.2-0.6,1.6,0,1.8c0.6,0.2,1-1.6,1.5-1.4C13.2,33,12.1,34.4,12.8,34.7L12.8,34.7z"/>
	<path class="st0" d="M23.8,35.2c0,0-1-0.2-1.4,0.9c-0.4,1.2-0.1,1.6,0.1,1.6c0.2-0.1,0.4-1.1,0.7-1c0.3,0.1-0.3,1.1,0.1,1.2
		c0.4,0.1,0.5-1.1,0.9-1c0.3,0.1-0.3,1.1,0.1,1.2C24.7,38.2,25.3,35.7,23.8,35.2L23.8,35.2z"/>
	<path class="st0" d="M27.2,38.7c0.4,0.1,0.9-2-0.3-2.3c0,0-0.9-0.2-1.2,0.8c-0.3,0.9-0.1,1.3,0.1,1.3c0.2,0,0.3-0.9,0.5-0.9
		c0.2,0.1-0.3,0.9,0.1,1c0.3,0.1,0.5-0.9,0.7-0.8C27.3,37.8,26.8,38.6,27.2,38.7L27.2,38.7z"/>
	<path class="st0" d="M30.2,39.4c0.4,0.1,0.6-2.1-0.6-2.3c0,0-0.9-0.1-1.1,0.9c-0.2,1,0.1,1.3,0.3,1.3c0.2-0.1,0.2-1,0.4-0.9
		c0.2,0.1-0.1,0.9,0.2,1c0.3,0,0.3-1,0.6-0.9C30.2,38.5,29.8,39.4,30.2,39.4L30.2,39.4z"/>
	<path class="st0" d="M10.7,37.4c-0.2,1.2-1.2,8.5-0.6,8.6c0.6,0.1,0.6-3.1,0.7-4.8c0.2-1.7,0.5-4.2,0.5-4.2S10.9,36.2,10.7,37.4
		L10.7,37.4z"/>
	<path class="st0" d="M15.2,38.9c-0.2,1-0.9,6.7-0.4,6.8c0.5,0.1,0.4-2.5,0.5-3.8c0.1-1.3,0.4-3.3,0.4-3.3S15.4,37.9,15.2,38.9
		L15.2,38.9z"/>
	<path class="st0" d="M18.9,39.9c-0.1,0.8-0.6,5.3-0.1,5.4c0.5,0.1,0.3-2,0.4-3c0.1-1,0.2-2.6,0.2-2.6S19,39.1,18.9,39.9L18.9,39.9z
		"/>
	<path class="st0" d="M22.7,40.4c-0.1,0.6-0.7,4-0.2,4.1c0.5,0,0.3-1.5,0.4-2.3c0.1-0.8,0.2-2,0.2-2S22.8,39.8,22.7,40.4L22.7,40.4z
		"/>
	<path class="st0" d="M26.6,41c0,0-0.3-0.3-0.4,0.2c-0.1,0.5-0.5,3.2,0,3.2c0.4,0,0.2-1.2,0.3-1.8C26.5,42,26.6,41,26.6,41L26.6,41z
		"/>
	<path class="st0" d="M29.5,41.5c0,0-0.3-0.2-0.4,0.2c-0.1,0.4-0.4,2.7,0,2.7c0.4,0,0.2-1,0.3-1.5C29.4,42.3,29.5,41.5,29.5,41.5
		L29.5,41.5z"/>
	<path class="st0" d="M88.1,38.5v2.3c0,0,1.1-0.1,1.1-0.4c0-0.3,0.5,0.1,0.5,0.1S89.5,39.3,88.1,38.5L88.1,38.5z"/>
	<path class="st0" d="M89.8,44.9c-0.4,0-0.8,0.1-0.8-0.9c0-1.1,0.2-1.9-0.9-1.5v3.5c0,0,1.6,1.1,2.5,0c0,0,0.4-2.1-0.3-3.6
		c0,0-0.1-0.1-0.5,0.2C89.8,42.6,90.2,44.9,89.8,44.9L89.8,44.9z"/>
	<path class="st0" d="M88.2,47.5c0,0-0.2,2.6,0,2.6s1,0,0.9-1.7C89.1,46.8,88.5,47,88.2,47.5L88.2,47.5z"/>
	<path class="st0" d="M90,47.1c0,0-0.3,0-0.3,1s-0.3,1.8,0,1.8c0.3,0,0.6-0.9,0.9-1.9C90.8,47.2,90.5,46.9,90,47.1L90,47.1z"/>
	<path class="st0" d="M88.4,52.4c0.6,0,1.5,0,1.7-1c0.1-1-1-0.8-1.9,0.1C88.1,51.5,87.8,52.4,88.4,52.4L88.4,52.4z"/>
	<path class="st0" d="M88.1,53.7c0,0-0.1,3,0,2.8s1.1-2,1.3-2.7C89.7,53.2,88.3,53.2,88.1,53.7L88.1,53.7z"/>
	<path class="st0" d="M87.7,72.8c0.4,1.7,0.1,1.6-0.3,1.6c-0.4,0-0.8-2.5-1.4-0.8c-0.4,0.9-0.9,2.3,0.2,2.2c1.1-0.1,4,0.1,3.1-2.1
		C88.3,71.5,87.2,71.1,87.7,72.8L87.7,72.8z"/>
	<path class="st0" d="M90.2,80c0,0,0.4-0.3,0.2-1c-0.2-0.6-2-0.2-2-0.2L84.2,79c0,0-0.5,0.9-0.3,1.1C83.9,80.1,89.9,80.2,90.2,80
		L90.2,80z"/>
	<path class="st0" d="M86.4,83.6c0-1.6-0.3-3-1.6-3c0,0-1.8-0.1-1.8,1.1c-0.1,1.2-0.2,2.9,0.3,2.9c0.5,0,0.1-2.1,0.6-2.1
		c0.4,0,0.5,0.8,0.5,1.4c0,0.6,0.8,0.8,0.7-0.1c-0.1-0.9-0.4-1.6,0-1.5c0.5,0.1,0.6,0.2,0.5,1.1C85.5,84.2,86.5,85.2,86.4,83.6
		L86.4,83.6z"/>
	<path class="st0" d="M88.2,82.2c0.4,0,0.4,0.8,0.4,1.3c0,0.5,0.7,0.8,0.7-0.1c-0.1-0.8-0.4-1.5,0-1.3c0.4,0.1,0.5,0.2,0.5,1
		c-0.1,0.8,0.8,1.7,0.8,0.1c0-1.5-0.3-2.8-1.5-2.7c0,0-1.6-0.1-1.7,1c-0.1,1.1-0.2,2.7,0.3,2.7C88.1,84.2,87.8,82.3,88.2,82.2
		L88.2,82.2z"/>
	<path class="st0" d="M45.6,101.1c0.7,0,0.3-3.2-0.4-2.6c0,0-0.4,0.3-0.4,1C44.8,100.3,45,101.1,45.6,101.1L45.6,101.1z"/>
	<path class="st0" d="M48.2,100.8c-0.2-1.2-0.7-1.8-0.8-1.3c0,0-0.2,0.7,0,1.5C47.6,101.9,48.4,102,48.2,100.8L48.2,100.8z"/>
	<path class="st0" d="M50.8,101.2c0.2-0.2-0.8-2.1-1.2-1.5c0,0-0.5,0.2,0.1,1C50.2,101.3,50.7,101.3,50.8,101.2L50.8,101.2z"/>
	<path class="st0" d="M53.5,104.9c-0.1-0.3-0.6-0.7-0.7-0.6c0,0-0.5,0.3-0.1,0.7C53.1,105.4,53.6,105.1,53.5,104.9L53.5,104.9z"/>
	<path class="st0" d="M55.7,105c0.6-0.3-0.6-1.4-1.3-1.3c0,0-0.4,0,0,0.6C54.8,104.9,55.1,105.3,55.7,105L55.7,105z"/>
	<path class="st0" d="M58.5,108.7c0.7,0.6,1.2,0.6,0.8-0.1c-0.4-0.7-0.7-1.3-1-0.9C58.3,107.6,57.8,108.1,58.5,108.7L58.5,108.7z"/>
	<path class="st0" d="M61.8,108.1c0.2-0.5-1-2.1-1.5-2c0,0-0.6,0.1-0.1,1.1C60.8,108.1,61.6,108.6,61.8,108.1L61.8,108.1z"/>
	<path class="st0" d="M63.6,107.5c0-0.5-0.9-2.2-1-1.7c0,0-0.3,1.1,0.2,1.8C63.3,108.2,63.6,108,63.6,107.5L63.6,107.5z"/>
	<path class="st0" d="M66,106.8c-0.1-0.7-0.7-1.8-1-1.5c0,0-0.6,0.3-0.1,1.1S66.1,107.5,66,106.8L66,106.8z"/>
	<path class="st0" d="M67.6,105.9c1.2,0-0.3-0.9-0.4-1.1c-0.1-0.2-0.6-0.3-0.6,0C66.7,104.8,66.4,105.9,67.6,105.9L67.6,105.9z"/>
	<path class="st0" d="M67.6,109.7c-0.1-0.4-0.4-0.7-0.7-0.7c0,0-0.8-0.1-0.3,0.6C67.2,110.2,67.7,110.1,67.6,109.7L67.6,109.7z"/>
	<path class="st0" d="M69.7,109.4c-0.4-1.1-0.8-1.7-1.2-1.4c0,0-0.3,0.5,0.2,1.2C69.2,109.9,70.1,110.5,69.7,109.4L69.7,109.4z"/>
	<path class="st0" d="M71.2,107.9c-0.1-0.9-1.7-3.1-1.7-2.2c0,0-0.1,0.7,0.4,1.4C70.4,107.8,71.3,108.8,71.2,107.9L71.2,107.9z"/>
	<path class="st0" d="M66.4,112.6c-0.2,0.4-0.5,1.4,0.1,1.1c0,0,1.1-0.6,0.9-1C67.3,112.5,66.6,112.3,66.4,112.6L66.4,112.6z"/>
	<path class="st0" d="M68.5,114.9c-0.6,0.1-1.1,0.7-0.8,1.1c0,0,0.3,0.6,1.1,0C69.5,115.3,69.1,114.7,68.5,114.9L68.5,114.9z"/>
	<path class="st0" d="M77.9,116c0,0-1.3,1.1-0.2,1.1c1.1,0.1,1.3-0.3,1-0.8C78.3,115.8,78.3,115.8,77.9,116L77.9,116z"/>
	<path class="st0" d="M85.1,117c-0.3,0-1.4,0.6-0.9,1.1c0,0,0.9,0.4,1.3-0.3C86,117.1,85.4,117,85.1,117L85.1,117z"/>
	<path class="st0" d="M88,114.8c-0.5,0.2-0.8,0.7,0,1c0,0,0.6,0.1,0.9-0.4C89.2,114.8,88.5,114.6,88,114.8L88,114.8z"/>
	<path class="st0" d="M83.3,114.3c0,0-1.1,1.4,0,1.5c1.1,0.1,0.6-1,0.6-1S83.4,114,83.3,114.3L83.3,114.3z"/>
	<path class="st0" d="M83.3,112c-0.6-0.5-0.8-0.2-1.1,0.1c0,0-0.7,1.3,0.1,1.3C83.2,113.3,83.8,112.5,83.3,112L83.3,112z"/>
	<path class="st0" d="M87.5,111.7c-0.1-0.5-0.3-0.7-0.7-0.4c0,0-0.9,0.7-0.3,0.9C87,112.4,87.6,112.2,87.5,111.7L87.5,111.7z"/>
	<path class="st0" d="M74.7,108.7c0,0-0.3,0.6,0.4,0.7c0.7,0.1,0.7-0.4,0.7-0.6C75.7,108.6,75.1,108.3,74.7,108.7L74.7,108.7z"/>
	<path class="st0" d="M75.8,104.4c0,0-0.2,0.8,0.5,1.1c0.7,0.2,0.5-0.5,0.4-0.7C76.6,104.7,75.7,104,75.8,104.4L75.8,104.4z"/>
	<path class="st0" d="M79.4,106.2c0,0-0.6,0.7-0.2,0.8C79.5,107.1,80.4,106.4,79.4,106.2L79.4,106.2z"/>
	<path class="st0" d="M82,104.4c0.6,0.1,1-0.6,0.1-0.8C82.2,103.6,81.4,104.3,82,104.4L82,104.4z"/>
	<path class="st0" d="M78.7,104.1c0,0-0.8,0.1-0.4,0.5c0.4,0.4,0.6,0.4,0.8-0.1C79.4,104,79.2,104,78.7,104.1L78.7,104.1z"/>
	<path class="st0" d="M80.1,101.3c0,0-0.2,0.6,0.3,0.8c0.5,0.3,0.5,0,0.5-0.3C81,101.5,80.1,100.9,80.1,101.3L80.1,101.3z"/>
	<path class="st0" d="M79.2,100.1c0,0,0.4,0.1,0.7-0.1C80.3,99.7,79.1,99.4,79.2,100.1L79.2,100.1z"/>
	<path class="st0" d="M85.8,96.7c0.4-0.3-0.4-0.7-0.7-0.2C85.2,96.5,85.5,97,85.8,96.7L85.8,96.7z"/>
	<path class="st0" d="M107.2,115c0.9-0.3,1.4-1.7-0.1-1.3c0,0-0.7,0.7-0.7,0.9C106.4,114.7,106.3,115.2,107.2,115L107.2,115z"/>
	<path class="st0" d="M101.7,112.6c0,0-0.3,0.9,0.1,0.8c0.4-0.1,1.1-0.3,0.6-0.7C102,112.3,101.8,112.4,101.7,112.6L101.7,112.6z"/>
	<path class="st0" d="M99.1,111.5c0,0-0.8,0.3-0.8,0.6s0,0.9,0.7,0.4C99.7,111.9,100.1,111,99.1,111.5L99.1,111.5z"/>
	<path class="st0" d="M96.2,110.4c0,0-0.9,0.3-0.6,0.6c0.3,0.4,1,1,1.2,0.3C96.9,110.7,96.7,110.1,96.2,110.4L96.2,110.4z"/>
	<path class="st0" d="M102.5,109.3c0,0-0.7,0.3-0.6,0.6c0.1,0.3,0.5,0.6,0.9,0.2C103.2,109.7,103.2,108.9,102.5,109.3L102.5,109.3z"
		/>
	<path class="st0" d="M104.7,112.2c0.6-0.2,1.3-1.5,0.2-1.3c0,0-0.4,0.2-0.6,0.6S104.2,112.3,104.7,112.2L104.7,112.2z"/>
	<path class="st0" d="M91.5,100.7c0,0,0,0.9,0.6,0.7c0.6-0.2,0.4-0.7,0.4-0.7S91.3,100,91.5,100.7L91.5,100.7z"/>
	<path class="st0" d="M91.4,104.9c-0.6-0.3-0.6-0.4-0.8-0.1c0,0-0.5,0.9,0.1,0.9C91.2,105.7,92,105.2,91.4,104.9L91.4,104.9z"/>
	<path class="st0" d="M93.9,102.2c0.1-0.4-1.9,0.5-1.1,0.8c0,0,0.6,0.3,1,0.1C94.1,103,93.9,102.6,93.9,102.2L93.9,102.2z"/>
	<path class="st0" d="M95.8,98.4c0.5,0,0.5-0.5,0.3-0.8c-0.2-0.3-1.1-0.3-1,0.3C95.1,97.8,95.3,98.4,95.8,98.4L95.8,98.4z"/>
	<path class="st0" d="M96.1,100c1.1,0.7,0.8-1.2,0.2-0.9C96.3,99.2,95.5,99.7,96.1,100L96.1,100z"/>
	<path class="st0" d="M97.8,98.6c1.2,0,0.6-1.2,0.1-1c0,0-0.6,0.4-0.6,0.6C97.3,98.3,96.9,98.6,97.8,98.6L97.8,98.6z"/>
	<path class="st0" d="M96.4,102.1c0,0.3,0.3,0.4,0.8,0.3c0.5-0.1,0.5-0.8-0.1-0.7C97.1,101.6,96.5,101.8,96.4,102.1L96.4,102.1z"/>
	<path class="st0" d="M99.2,101.3c0.3-0.1,0.2-0.6,0.2-1c0-0.4-0.1-0.6-0.6-0.2c0,0-0.3,0.1-0.3,0.4
		C98.6,100.9,98.9,101.4,99.2,101.3L99.2,101.3z"/>
	<path class="st0" d="M109.5,95c0.4-0.4,0.7-1.1-0.1-1.1c0,0-0.5,0-0.5,0.6C109,95,109.1,95.4,109.5,95L109.5,95z"/>
	<path class="st0" d="M110.8,95.6c0,0,0.6,0.3,0.9,0.2c0.4-0.1,0.2-0.6-0.1-0.8C111.3,94.9,110.3,95.5,110.8,95.6L110.8,95.6z"/>
	<path class="st0" d="M112.8,93.3c0.9,0.2,1.1-0.9,0.7-0.9C113.5,92.5,111.9,93.1,112.8,93.3L112.8,93.3z"/>
	<path class="st0" d="M110.9,93c0.5,0,0.8-0.2,0.5-0.4c-0.3-0.2-0.7-0.7-0.7-0.4C110.7,92.2,110.5,93.1,110.9,93L110.9,93z"/>
	<path class="st0" d="M107.7,34.8c-0.1-1-0.3-1.2-0.4-1.1c0,0-0.2,2.6,0,2.7C107.7,36.5,107.8,35.7,107.7,34.8L107.7,34.8z"/>
	<path class="st0" d="M94.8,40.7c-0.5,0.1-0.7-0.7-0.7-1.3c0-0.5-0.5-0.9-0.7-0.2c0,0,0.1,2.3,1.2,2.2c1.4-0.1,1.7-0.8,1.2-2.6
		c0,0-0.3-0.5-0.7-0.1C94.5,39.1,95.4,40.6,94.8,40.7L94.8,40.7z"/>
	<path class="st0" d="M96.5,38.3c0,0-0.2,2.4,0.8,2.5c1.3,0.1,1.8-0.6,1.5-2.6c0,0-0.2-0.6-0.7-0.2c-0.5,0.3,0.1,2.1-0.4,2.1
		c-0.5,0-0.6-0.9-0.6-1.5C97.2,38,96.8,37.6,96.5,38.3L96.5,38.3z"/>
	<path class="st0" d="M99.7,37.5c0,0-0.2,2.5,0.7,2.5c1.2,0,1.7-0.7,1.4-2.7c0,0-0.2-0.6-0.6-0.2c-0.4,0.3,0.1,2.2-0.4,2.2
		c-0.5,0-0.5-0.9-0.5-1.5C100.4,37.2,100,36.8,99.7,37.5L99.7,37.5z"/>
	<path class="st0" d="M102.6,36.1l0,2.2c0,0-0.2,1.5,1.4,1.5c1.6,0,1.2-2,1.2-2.8s-0.1-2.1-0.5-2.1c-0.4,0.1-0.5,0.5-0.5,1.5
		c0,0.9,0.2,2-0.3,2c-0.5,0-0.5-0.7-0.5-1.6C103.5,35.8,102.7,35.1,102.6,36.1L102.6,36.1z"/>
	<path class="st0" d="M106.9,34c0,0-0.9-0.8-0.9,0.4s-0.4,4.8,1.7,4.9c2.1,0.1,1.7-2.6,1.7-4.2c0-1.7,0.3-3.4-0.4-3
		c-0.7,0.5-0.7,1-0.8,2.2c-0.1,1.2,0.2,3.2-0.4,3.3c-0.6,0.1-1-0.1-0.9-1.9C107,34.3,106.9,34,106.9,34L106.9,34z"/>
	<path class="st0" d="M111.4,35.3c-0.1-2,0-3.4-0.4-3.4c0,0-0.7-0.1-0.7,0.9c0,1-0.4,4.9,0.9,5.5c1.3,0.6,3.1,0.2,3.2-1.2
		c0-1.5,0-4.7,0-5.5c0-0.9-0.9-1.3-1-0.1c-0.2,1.2,0.5,5.9-0.6,5.8C111.7,37.2,111.5,37.2,111.4,35.3L111.4,35.3z"/>
	<path class="st0" d="M112.2,32.2c0,0-0.4,3.5,0.1,3.7s0.2-2.4,0.3-3.2C112.7,31.9,112.3,31.6,112.2,32.2L112.2,32.2z"/>
	<path class="st0" d="M107.1,87c0.9,0.1,3.5-5.9,4.2-9.8c0.7-3.9,0.9-4.8,1.7-6.5c0.8-1.8,1.8-8.8,1.8-12.4c0-3.6,0.2-6.8,0-7.4
		c-0.2-0.6-0.4-0.8-1-0.3c-0.6,0.5-1.4,0.2-1.3,1.8c0.1,1.6,0.2,11.6-0.4,13.2c-0.6,1.6-1.1,4.1-1.6,5.7c-0.5,1.7-1,3.5-0.7,0.1
		c0.4-3.4,1.1-3.5,1.1-5.6c0.1-2.1,0.6-4.5,0.5-7.5c-0.1-3,0.2-6.7,0.2-6.7s-1.5-2-1.6-0.2c-0.1,1.8,0.1,11.2-0.1,12.4
		c-0.2,1.3-0.6,3.2-0.4,4.4c0.1,1.3-0.5,1.7-0.6,3.7c-0.1,2.1-0.7,9.9-1.7,12C106.4,86,106.2,86.9,107.1,87L107.1,87z"/>
	<path class="st0" d="M105.7,77.6c0.7-0.4,3.2-6.5,3.4-15.7c0.2-9.3,0.5-10.3,0.1-11c-0.4-0.7-1.3-0.9-1.1,1
		c0.2,1.9-0.4,15.2-1,15.3c-0.6,0.5,0.5-11.4,0.2-16l-0.1-0.1c0,0-0.8-2.2-0.9-0.5c-0.1,1.7-0.1,9-0.3,9.5c-0.2,0.6-1,3.7-0.8,5.9
		c0.3,2.2,0.5,7.8,0.1,9.3C105.2,76.8,105.1,78,105.7,77.6L105.7,77.6z"/>
	<path class="st0" d="M105.1,56.8c0.2-2,0.7-5.9,0.5-6.9c0,0-1.1-0.4-1.2,0.8c-0.1,0.7-0.1,3.8-0.2,4.9c-0.2,1.1-0.2,5.6-0.8,5.6
		c-0.7-0.1-0.3-2.3-0.1-4.2c0.2-2,0.9-3.9,0.4-6.8c0,0-0.9-1-1-0.1c-0.1,0.9,0.1,3.3-0.2,3.7c-0.3,0.4-0.6,1.7-0.5,3.2
		c0.1,1.5,0.3,3.8-0.3,4.7c-0.6,0.9-0.4,2.1-0.6,3.3c-0.2,1.2-0.5,3.9-1.6,5.6c-1.1,1.7,1.2,2.2,3.5-4.3
		C105.4,59.9,105,58.7,105.1,56.8L105.1,56.8z"/>
	<path class="st0" d="M99.1,50.2c0,1-0.1,7.5-0.6,8.6s-0.7,3.4-1,4c-0.3,0.6-1.5,3.5-2,4.4c-0.6,0.9-0.5,2,0.6,1.3
		c1-0.8,4.1-4.8,4.6-8.3c0.5-3.5,1-5.8,1.2-6.7c0.2-1,0.4-3.5,0.1-3.7c-0.3-0.2-0.9-0.4-0.9,0.6c0,1-0.3,4.3-0.8,5.9
		c-0.5,1.6-0.6,2.2-0.6,0.2c-0.1-2,0.4-6,0.1-6.9C99.8,49.4,99.1,49.2,99.1,50.2L99.1,50.2z"/>
	<path class="st0" d="M95.8,49.1c0,0-0.1,0.9-0.1,3.7c0,3.5-1.8,7-2.8,9.2c-1,2.2,0.4,1.6,1.2,0.9c0.8-0.7,2.3-3.4,3.1-4.9
		c0.8-1.6,1.5-8.8,1.5-8.8c-0.1-0.3-0.8-0.5-1.1-0.1c-0.3,0.4-0.6,0.6-0.8,0.1C96.5,48.8,95.8,49.1,95.8,49.1L95.8,49.1z"/>
	<path class="st0" d="M94.5,56c0.5-1.2,0.6-6.6,0.6-6.6c0-0.9-0.4-1.4-0.5,0.1C94.5,51,94,50.3,93.8,49c-0.3-1.3-0.7,2.5-0.5,3.8
		c0.2,1.3-1.1,4.8-1.6,7.1C91.1,62.2,94,57.2,94.5,56L94.5,56z"/>
	<path class="st0" d="M95.1,43.1c-0.2,1.7,0.1,2.4-0.5,2.2c-0.6-0.2,0-2.8-0.5-2.8c-0.4,0-0.4,1-0.4,1.8C93.6,45,93.5,47,94.6,47
		c1.8,0,1.4-3.4,1.4-4C95.9,42.4,95.3,41.4,95.1,43.1L95.1,43.1z"/>
	<path class="st0" d="M98.7,42c-0.4,0-0.7,0.1-0.6,1.1c0,1,0.2,2-0.3,1.8c-0.5-0.1-0.3-1.2-0.3-2.1c0-0.9-0.3-0.9-0.3-0.9
		s-0.5-0.1-0.5,0.8c0,0.9-0.2,4.1,0.8,4.2c1,0.1,1.5-0.8,1.6-2.9C99.1,42,99.1,42,98.7,42L98.7,42z"/>
	<path class="st0" d="M100.7,47.6c1.7,0.2,1.3-2.8,1.4-3.6c0-0.7,0.2-2.5-0.2-2.5c-0.4,0-0.4,0.4-0.4,1.3c0,0.8-0.1,2.7-0.6,2.8
		c-0.5,0-0.6-0.9-0.5-2.3c0.1-1.4,0.1-1.6-0.1-1.6c0,0-0.6,0-0.6,1.1C99.8,43.9,99.1,47.5,100.7,47.6L100.7,47.6z"/>
	<path class="st0" d="M105.5,41.3c-0.5-0.1-0.8,0-0.8,1s0.1,4-0.5,4c-0.6,0-0.7-0.9-0.7-2.4c0-1.6,0.4-2.5,0.1-2.5
		c0,0-0.8-0.4-0.9,1.1c0,1.5-0.3,5.6,0.9,5.8c1.2,0.2,2-1.4,1.9-3.2C105.4,43.1,106,41.4,105.5,41.3L105.5,41.3z"/>
	<path class="st0" d="M107.1,40.9c0,0-0.7-0.1-0.7,1.1c-0.1,1.2,0.1,3.5,0.1,4.6c0,1.1,0.1,2.1,1.2,2.2c1.1,0.1,1.8-1.6,1.8-3.4
		c0-1.8,0.5-4.7-0.2-4.8c-0.7-0.1-0.5,0.5-0.5,1.2c0,0.7,0,5.2-0.8,5.1c-0.8-0.1-0.9-2-0.7-4C107.5,40.6,107.1,40.9,107.1,40.9
		L107.1,40.9z"/>
	<path class="st0" d="M107.9,41.6c0,0-0.3-0.2-0.3,1c0,1.2-0.3,3.1,0.2,3.2c0.5,0,0.1-1.1,0.3-2.1C108.3,42.6,108.3,41.6,107.9,41.6
		L107.9,41.6z"/>
	<path class="st0" d="M114.6,40c-0.6-0.1-0.9-0.2-0.9,1.1c0,1.3-0.1,5.2-0.1,5.2s0.1,1.6-0.9,1.6c-1.1,0-1.1-0.7-1.1-2.1
		c0-1.4,0.4-5.2-0.5-5.4c0,0-0.7,0-0.7,1.3c0,1.3,0,5,0,5.6s0.3,2.2,2,2.5c1.8,0.2,2.3-2.3,2.3-4.8C114.7,42.6,115.2,40.1,114.6,40
		L114.6,40z"/>
	<path class="st0" d="M112.6,41.4c0,0-0.5-0.2-0.5,0.9c0,1.1-0.2,4.5,0.2,4.5c0.4,0,0.5-0.2,0.4-1.1C112.6,43,113,41.4,112.6,41.4
		L112.6,41.4z"/>
	<path class="st0" d="M92.8,9.7l0.6-4c0.1-0.6,0-1-0.8-1.1l-0.9-0.1l-0.8,6l0.9,0.1C92.5,10.7,92.7,10.3,92.8,9.7L92.8,9.7z
		 M91.4,10.1l0.3-2.2l0.6,0.1l0.1-0.6l-0.6-0.1L92.2,5l0.3,0c0.4,0.1,0.5,0.2,0.4,0.5l-0.6,4.1c0,0.3-0.2,0.4-0.5,0.4L91.4,10.1
		L91.4,10.1z"/>
	<path class="st0" d="M45.1,39.7c0,0-0.8,0.1-0.8-0.8c0-0.2,0-0.5,0-0.8h1.6c0.7,0,1.2-0.5,1.2-1.1c0-0.6-0.5-1.1-1.2-1.1h-1.6h-0.6
		h-0.8v0.6c0,0,0.4-0.1,0.4,0.4c0,0.6,0,2.3,0,2.3s-0.1,0.4-0.5,0.4v0.4H45L45.1,39.7L45.1,39.7z M45.3,36.4c0.3,0,0.6,0.3,0.6,0.6
		c0,0.3-0.3,0.6-0.6,0.6h-1.1c0-0.4,0-0.9,0-1.2H45.3L45.3,36.4z"/>
	<path class="st0" d="M38.8,65c0.6,0,2.3,0,2.3,0s0.4,0.1,0.4,0.5h0.4v-2.3l-0.4,0c0,0,0.1,0.8-0.8,0.8c-0.2,0-0.5,0-0.8,0v-1.6
		c0-0.7-0.5-1.2-1.1-1.2c-0.6,0-1.1,0.5-1.1,1.2V64v0.6v0.8h0.6C38.3,65.4,38.2,65,38.8,65L38.8,65z M38.2,62.9
		c0-0.3,0.3-0.6,0.6-0.6s0.6,0.3,0.6,0.6V64c-0.4,0-0.9,0-1.2,0V62.9L38.2,62.9z"/>
	<path class="st0" d="M78.4,83.1c0,0-0.2,0.5-0.7,0.1c-0.5-0.3-1.9-1.4-1.9-1.4s-0.3-0.3,0-0.7l-0.3-0.2l-1.5,2l0,0l-0.5,0.7
		c-0.4,0.6-0.4,1.4,0.2,1.8c0.4,0.3,0.8,0.3,1.3,0c0,0.3,0.2,0.6,0.4,0.8c0.5,0.4,1.2,0.2,1.6-0.3l0.9-1.3l0.1-0.2l0.3-0.4l0.5-0.7
		L78.4,83.1L78.4,83.1z M74.6,84.5c-0.3-0.2-0.3-0.6-0.1-0.9l0.6-0.9c0.1,0,0.3,0,0.5,0.2c0.2,0.1,0.4,0.3,0.6,0.4l-0.7,1
		C75.3,84.6,74.9,84.7,74.6,84.5L74.6,84.5z M77,85.3c-0.2,0.3-0.5,0.3-0.8,0.1c-0.3-0.2-0.3-0.5-0.1-0.8l0.6-0.8
		c0.4,0.3,0.7,0.5,0.9,0.7L77,85.3L77,85.3z"/>
	<path class="st0" d="M50.8,35.9c-1.3,0-2.3,1-2.3,2.2c0,1.2,1,2.2,2.3,2.2s2.3-1,2.3-2.2C53.1,36.9,52.1,35.9,50.8,35.9L50.8,35.9z
		 M50.8,39.6c-0.4,0-1-0.7-1-1.5c0-0.8,0.6-1.5,1-1.5s1,0.7,1,1.5C51.7,38.9,51.2,39.6,50.8,39.6L50.8,39.6z"/>
	<path class="st0" d="M57.1,39.7c0,0-0.8,0.1-0.8-0.8c0-0.2,0-0.5,0-0.8H57l1.2,1.9c0,0,0.8,0.2,1.3-0.5l-0.2-0.3
		c0,0-0.5,0.4-0.8-0.1c-0.2-0.3-0.5-0.8-0.6-1.1c0.6,0,1.1-0.5,1.1-1.1c0-0.6-0.5-1.1-1.2-1.1h-1.6h-0.6h-0.8v0.6
		c0,0,0.4-0.1,0.4,0.4c0,0.6,0,2.3,0,2.3s-0.1,0.4-0.5,0.4v0.4h2.3L57.1,39.7L57.1,39.7z M57.3,36.4c0.3,0,0.6,0.3,0.6,0.6
		c0,0.3-0.3,0.6-0.6,0.6h-1.1c0-0.4,0-0.9,0-1.2H57.3L57.3,36.4z"/>
	<path class="st0" d="M38.8,56.9c0.6,0,2.3,0,2.3,0s0.4,0.1,0.4,0.5h0.4v-2.3l-0.4,0c0,0,0.1,0.8-0.8,0.8c-0.2,0-0.5,0-0.8,0v-0.7
		l1.9-1.2c0,0,0.2-0.8-0.5-1.3l-0.3,0.2c0,0,0.4,0.5-0.1,0.8c-0.3,0.2-0.8,0.5-1.1,0.6c0-0.6-0.5-1.1-1.1-1.1
		c-0.6,0-1.1,0.5-1.1,1.2v1.6v0.6v0.8h0.6C38.3,57.3,38.2,56.9,38.8,56.9L38.8,56.9z M38.2,54.8c0-0.3,0.3-0.6,0.6-0.6
		c0.3,0,0.6,0.3,0.6,0.6v1.1c-0.4,0-0.9,0-1.2,0V54.8L38.2,54.8z"/>
	<path class="st0" d="M60.4,92.7c0,0,0.8,0.2,0.6,1c-0.1,0.2-0.1,0.4-0.2,0.7l-0.7-0.2l-0.6-2.2c0,0-0.7-0.4-1.4,0.1l0.1,0.3
		c0,0,0.6-0.2,0.7,0.3c0.1,0.4,0.2,0.9,0.3,1.2c-0.6-0.1-1.2,0.2-1.4,0.7c-0.2,0.6,0.2,1.2,0.9,1.4l2.1,0.6l0.7,0.2l0.2-0.5
		c0,0-0.5,0-0.3-0.6c0.2-0.5,0.6-2.2,0.6-2.2s0.2-0.4,0.6-0.2l0.1-0.4l-2.2-0.6L60.4,92.7L60.4,92.7z M58.9,95.2
		c0.1-0.3,0.4-0.5,0.7-0.4l1,0.3c-0.1,0.4-0.2,0.8-0.3,1.1l-1-0.3C59,95.8,58.8,95.5,58.9,95.2L58.9,95.2z"/>
	<path class="st0" d="M84.9,41c0,0,0.1,0.4-0.4,0.4c-0.6,0-2.3,0-2.3,0s-0.4-0.1-0.4-0.5h-0.4v2.3l0.4,0c0,0-0.1-0.8,0.8-0.8
		c0.2,0,0.5,0,0.8,0v0.7l-1.9,1.2c0,0-0.2,0.8,0.5,1.3l0.3-0.2c0,0-0.4-0.5,0.1-0.8c0.3-0.2,0.8-0.5,1.1-0.6c0,0.6,0.5,1.1,1.1,1.1
		c0.6,0,1.1-0.5,1.1-1.2v-1.6v-0.6V41L84.9,41L84.9,41z M85,43.5c0,0.3-0.3,0.6-0.6,0.6c-0.3,0-0.6-0.3-0.6-0.6v-1.1
		c0.4,0,0.9,0,1.2,0V43.5L85,43.5z"/>
	<polygon class="st0" points="68.2,39.8 67.6,39.8 69.2,37.5 71.4,40.1 73.4,38 74.6,39.8 73.8,39.8 73.8,40.1 76.7,40.1 76.7,39.8 
		76.3,39.8 74.4,36.9 74.4,36.9 74.4,36.1 73.5,36.1 73.5,36.7 71.9,38.4 70,36.1 68,36.1 68,36.7 68.5,36.7 68.5,36.7 66.5,39.8 
		66.1,39.8 66.1,40.1 68.2,40.1 	"/>
	<polygon class="st0" points="80.3,39.5 80,39.5 80,36.7 80.3,36.7 80.3,36.1 78.4,36.1 78.4,36.7 78.7,36.7 78.7,39.5 78.4,39.5 
		78.4,40.1 80.3,40.1 	"/>
	<polygon class="st0" points="38.4,51.5 41.2,51.5 41.2,51.8 41.8,51.8 41.8,49.9 41.2,49.9 41.2,50.2 38.4,50.2 38.4,49.9 
		37.8,49.9 37.8,51.8 38.4,51.8 	"/>
	<polygon class="st0" points="38.4,43.7 42,41.4 38.4,38.7 38.4,37.9 37.8,37.9 37.8,39.9 38.4,39.9 38.4,39.4 40.4,40.9 38.4,42.2 
		38.4,42 37.8,42 37.8,44.3 38.4,44.3 	"/>
	<polygon class="st0" points="38.2,49 39,49 39,48.6 38.6,48.6 38.6,47.5 41.2,47.5 41.2,48.2 41.8,48.2 41.8,45.5 41.2,45.5 
		41.2,46.2 38.6,46.2 38.6,45 39,45 39,44.7 38.6,44.7 38.6,44.7 37.8,44.7 37.8,49 38.2,49 	"/>
	<polygon class="st0" points="38.4,60.3 41.2,60.3 41.2,60.6 41.8,60.6 41.8,58.7 41.2,58.7 41.2,59.1 38.4,59.1 38.4,58.7 
		37.8,58.7 37.8,60.6 38.4,60.6 	"/>
	<path class="st0" d="M74.3,88.1c0,0-0.2-0.1-0.3-0.2l-1.7-1.8c-0.1-0.1-0.1-0.1-0.1-0.2c0,0,0.1-0.2,0.3-0.3l-0.3-0.4l-3.1,2.9
		l0.5,1l0.4-0.4c-0.1-0.2,0-0.6,0-0.6c0-0.1,0-0.1,0.1-0.2l1.3-1.2l1.8,1.9c0.1,0.1,0.2,0.2,0.2,0.3c0,0-0.5,0.5-0.7,0.7l0.4,0.4
		l1.9-1.8l-0.4-0.4C74.5,88,74.4,88.1,74.3,88.1L74.3,88.1z"/>
	<path class="st0" d="M45.5,83.2l2.1-1.3c0.1-0.1,0.1-0.1,0.2,0c0,0,0.1,0.2,0.3,0.4l0.4-0.3l-2.3-3.6l-1.1,0.3l0.3,0.4
		c0.2-0.1,0.6,0.1,0.6,0.1c0.1,0,0.1,0.1,0.2,0.1l0.9,1.5l-2.2,1.4c-0.1,0.1-0.3,0.2-0.3,0.1c0,0-0.4-0.6-0.5-0.8l-0.5,0.3l1.4,2.3
		l0.5-0.3c-0.1-0.2-0.2-0.4-0.2-0.4C45.2,83.4,45.4,83.2,45.5,83.2L45.5,83.2z"/>
	<path class="st0" d="M47.7,83l0.4,0.5c0.2-0.1,0.3-0.1,0.3-0.1c0.1,0,0.2-0.1,0.2-0.1c0.1,0,0.3,0.2,0.3,0.3l0.8,0.9l-1.1,0.8
		l-1-1.2l-0.5,0.4l1,1.2l-0.8,0.7l-0.9-1.1c0,0,0,0,0-0.1c0,0,0-0.1,0-0.1c0,0,0-0.1,0.1-0.1l0.2-0.3l-0.4-0.5l-0.7,0.9L48,88
		l0.4-0.3c-0.1-0.1-0.2-0.2-0.2-0.2c-0.1-0.1-0.1-0.1-0.1-0.1c0,0,0-0.1,0.1-0.1l2.1-1.7c0.1-0.1,0.1-0.1,0.2-0.1
		c0,0,0.1,0.1,0.3,0.3l0.4-0.3l-2.4-2.9L47.7,83L47.7,83z"/>
	<path class="st0" d="M41.1,74.9l2.6-0.9c0.1,0,0.2,0,0.2,0c0,0,0.1,0.2,0.2,0.4l0.5-0.2l-1.2-3.6l-1.2,0.1l0.2,0.6
		c0.2,0,0.3,0,0.4,0c0.1,0,0.2,0,0.2,0c0.1,0,0.2,0.3,0.2,0.4l0.4,1.2l-1.3,0.4l-0.5-1.5L41.1,72l0.5,1.5l-1,0.3l-0.4-1.3
		c0,0,0-0.1,0-0.1c0,0,0-0.1,0.1-0.1c0,0,0.1,0,0.1-0.1l0.3-0.2l-0.2-0.6l-1,0.6l1.1,3.4l0.5-0.2c0-0.1-0.1-0.2-0.1-0.3
		c0-0.1,0-0.1,0-0.2C40.9,74.9,41,74.9,41.1,74.9L41.1,74.9z"/>
	<path class="st0" d="M39.8,70.6c0.5,0,0.8-0.5,1.1-1.4c0.1-0.3,0.1-0.6,0.2-0.8c0.1-0.4,0.2-0.6,0.2-0.8c0.1-0.1,0.2-0.2,0.3-0.2
		c0.1,0,0.2,0,0.3,0.2c0.1,0.1,0.1,0.3,0.1,0.5c0,0.3,0,0.8-0.1,0.9c-0.1,0.2-0.5,0.4-0.8,0.6l0.3,0.7c0.4-0.2,0.8-0.4,1.2-0.5
		c0.1-0.7,0.2-1,0.1-1.6c-0.1-0.9-0.3-1.2-0.6-1.7c-0.3-0.4-0.6-0.6-1-0.5c-0.3,0-0.5,0.2-0.7,0.4c-0.1,0.2-0.3,0.7-0.4,1.1
		c0,0.1-0.1,0.3-0.2,0.8c-0.1,0.4-0.2,0.6-0.2,0.8c0,0.1-0.1,0.1-0.1,0.1c-0.2,0-0.4-0.2-0.4-0.6c0-0.3-0.1-1.3,0-1.5
		c0.1-0.1,0.4-0.3,0.8-0.4l-0.2-0.6c-0.5,0.2-0.8,0.3-1.1,0.4c-0.1,0.6-0.1,0.9-0.1,1.6c0.1,0.7,0.2,1.3,0.5,1.7
		C39.1,70.4,39.4,70.6,39.8,70.6L39.8,70.6z"/>
	<path class="st0" d="M84.3,53.6c0.2,0.1,0.1,0.1,0.1,0.1c0.1,0,0.2,0.1,0.2,0.1c0,0,0,0.1,0,0.2v1.5l-2.9-2.6c0,0-0.4-0.5-0.4,0.3
		c0,0.9,0,4,0,4l1.1,0.3v-0.8c-0.3-0.1-0.2-0.2-0.3-0.2c-0.1-0.1-0.1-0.2-0.1-0.3V55l2.9,2.5c0,0,0.4,0.3,0.4-0.4c0-0.7,0-4,0-4
		l-1.1-0.3L84.3,53.6L84.3,53.6z"/>
	<path class="st0" d="M82,46.4c0,0,0-0.2,0-0.4h-0.7v1.7H82c0-0.2,0-0.3,0-0.3c0,0,0,0,0,0l0.7,0.4v1.8c-0.6,0.3-0.7,0.4-0.7,0.4
		s0-0.7,0-0.7h-0.7v2.7H82c0-0.2,0-0.3,0-0.4c0-0.1,0.1-0.1,0.2-0.2l3.2-1.9v-1.2l-3.3-1.8C82.1,46.5,82,46.4,82,46.4L82,46.4z
		 M83.3,48.2l0.9,0.5l-0.9,0.5V48.2L83.3,48.2z"/>
	<path class="st0" d="M82,58.7c0,0,0-0.2,0-0.4h-0.7V60H82c0-0.2,0-0.3,0-0.3c0,0,0,0,0,0l0.7,0.4v1.8c-0.6,0.3-0.7,0.4-0.7,0.4
		s0-0.7,0-0.7h-0.7v2.7H82c0-0.2,0-0.3,0-0.4c0-0.1,0.1-0.1,0.2-0.2l3.2-1.9v-1.2l-3.3-1.8C82,58.8,82,58.7,82,58.7L82,58.7z
		 M83.2,60.5l0.9,0.5l-0.9,0.5V60.5L83.2,60.5z"/>
	<path class="st0" d="M68.8,89.5l-0.4-0.6L67,89.8l0.4,0.6c0.2-0.1,0.3-0.2,0.3-0.2c0,0,0,0,0,0l0.1,0.8l-1.5,1
		c-0.6-0.3-0.7-0.4-0.7-0.4s0.6-0.4,0.6-0.4l-0.4-0.6l-2.3,1.5l0.4,0.6c0.2-0.1,0.3-0.2,0.3-0.2c0.1,0,0.1,0,0.2,0.1l3.3,1.7l1-0.6
		l-0.3-3.7c0-0.1,0-0.1,0-0.2C68.5,89.7,68.6,89.6,68.8,89.5L68.8,89.5z M66.8,92.3l0.8-0.5l0.1,1L66.8,92.3L66.8,92.3z"/>
	<path class="st0" d="M56.6,90.2l-0.4,0.6c0.2,0.1,0.3,0.2,0.3,0.2c0,0,0,0,0,0l-0.7,0.4l-1.5-1c0.1-0.7,0.1-0.8,0.1-0.8
		s0.6,0.4,0.6,0.4l0.4-0.6l-2.2-1.6l-0.4,0.6c0.2,0.1,0.3,0.2,0.3,0.2c0,0,0,0.1,0,0.2l-0.3,3.7l1,0.7l3.3-1.7c0.1,0,0.1,0,0.2,0
		c0,0,0.1,0.1,0.3,0.2l0.4-0.6L56.6,90.2L56.6,90.2z M54.2,92l0.1-1l0.8,0.6L54.2,92L54.2,92z"/>
	<path class="st0" d="M79.1,75.4c0,0,0.1-0.2,0.1-0.3l-0.6-0.3l-0.7,1.5l0.6,0.3c0.1-0.2,0.1-0.3,0.1-0.3c0,0,0,0,0,0l0.5,0.6
		l-0.7,1.6c-0.7,0.1-0.8,0.1-0.8,0.1S78,78,78,77.9l-0.6-0.3l-1.1,2.5l0.6,0.3c0.1-0.2,0.1-0.3,0.2-0.3c0,0,0.1-0.1,0.2-0.1l3.7-0.5
		l0.5-1.1l-2.3-2.9C79.2,75.5,79.1,75.4,79.1,75.4L79.1,75.4z M80.2,78.3l-1,0.1l0.4-0.9L80.2,78.3L80.2,78.3z"/>
	<path class="st0" d="M83.9,69.6c0,0.1-0.1,0.1-0.1,0.1c0,0-0.2,0-0.3-0.1L81.1,69c-0.1,0-0.1-0.1-0.2-0.1c0,0,0-0.2,0.1-0.4
		l-0.5-0.1l-0.5,2l0.5,0.1c0-0.1,0.1-0.2,0.1-0.3c0-0.1,0-0.1,0.1-0.1c0,0,0.1,0,0.1,0l1,0.3l-0.5,1.8l-1-0.3
		c-0.1,0-0.1-0.1-0.1-0.1c0,0,0-0.2,0.1-0.4l-0.5-0.1l-0.5,2l0.5,0.1c0-0.2,0.1-0.2,0.1-0.3c0-0.1,0.1-0.1,0.1-0.1c0,0,0.1,0,0.2,0
		l2.4,0.6c0.1,0,0.3,0.1,0.3,0.1c0,0,0,0.2-0.1,0.4l0.5,0.1l0.5-2l-0.5-0.1c0,0.1-0.1,0.2-0.1,0.3c0,0.1,0,0.1-0.1,0.1
		c0,0-0.2,0-0.3-0.1l-0.8-0.2l0.5-1.8l0.8,0.2c0.1,0,0.3,0.1,0.3,0.1c0,0,0,0.2-0.1,0.4l0.5,0.1l0.5-2L84,69.3
		C83.9,69.4,83.9,69.5,83.9,69.6L83.9,69.6z"/>
</g>
</svg>
