<?xml version="1.0" encoding="utf-8"?>
<!-- Generator: Adobe Illustrator 16.0.0, SVG Export Plug-In . SVG Version: 6.00 Build 0)  -->
<!DOCTYPE svg PUBLIC "-//W3C//DTD SVG 1.1//EN" "http://www.w3.org/Graphics/SVG/1.1/DTD/svg11.dtd">
<svg version="1.1" id="Capa_1" xmlns="http://www.w3.org/2000/svg" xmlns:xlink="http://www.w3.org/1999/xlink" x="0px" y="0px"
	 width="102px" height="102px" viewBox="0 0 102 102" enable-background="new 0 0 102 102" xml:space="preserve">
<rect fill="none" width="102" height="102"/>
<path opacity="0.25" fill="#FFFFFF" enable-background="new    " d="M51,96.8C25.746,96.8,5.2,76.254,5.2,51S25.746,5.2,51,5.2
	S96.8,25.746,96.8,51S76.254,96.8,51,96.8z M51,15.2c-19.74,0-35.8,16.06-35.8,35.8S31.26,86.8,51,86.8S86.8,70.74,86.8,51
	S70.74,15.2,51,15.2z"/>
<circle fill="none" stroke="#FFFFFF" stroke-width="6" stroke-linecap="round" cx="51" cy="51" r="40.8">
<animate  fill="remove" repeatCount="indefinite" attributeName="stroke-dashoffset" accumulate="none" dur="3s" additive="replace" from="0" to="502" restart="always" calcMode="linear">
	</animate>
<animate  fill="remove" repeatCount="indefinite" attributeName="stroke-dasharray" accumulate="none" dur="3s" additive="replace" restart="always" calcMode="linear" values="150.6 100.4;1 250;150.6 100.4">
	</animate>
</circle>
<g>
	<path fill="#B58418" d="M59.389,49.758c1.344-1.624,0.1-3.178-2.779-3.471c-2.877-0.292-6.299,0.788-7.643,2.414
		c-1.344,1.624-0.1,3.179,2.778,3.47C54.621,52.463,58.044,51.383,59.389,49.758"/>
	<polygon fill="#B58418" points="23.007,60.813 25.089,62.439 46.604,52.313 45.083,51.422 	"/>
	<polygon fill="#B58418" points="47.648,52.934 49.212,53.839 29.566,64.66 26.747,63.4 	"/>
	<path fill="#FFFFFF" d="M64.605,56.494c-4.235,2.054-12.194,3.718-18.943,3.031c-1.86-0.188-3.523-0.528-4.973-0.992l-3.341,1.841
		c1.862,0.642,14.638,3.632,29.71-3.632L64.605,56.494z"/>
	<path fill="#FFFFFF" d="M67.916,58.43c-5.867,2.85-16.009,4.92-24.686,4.038c-2.655-0.27-4.995-0.78-6.994-1.481l-3.338,1.84
		c2.406,0.881,17.929,5.267,37.356-4.146L67.916,58.43z"/>
	<path fill="#FFFFFF" d="M71.251,60.333c-7.987,3.692-19.848,6.153-30.454,5.077c-3.449-0.352-6.471-1.03-9.011-1.973l-2.217,1.223
		c2.81,1.063,22.164,6.52,44.053-4.087L71.251,60.333z"/>
	<path fill="#FFFFFF" d="M26.755,59.218l3.75-1.595c-2.901-2.924-3.061-6.802,0.225-10.773c6.046-7.312,21.443-12.173,34.398-10.859
		c4.271,0.434,7.735,1.487,10.255,2.965l3.533-1.712c-2.938-1.723-6.98-2.954-11.964-3.46c-15.113-1.533-33.077,4.138-40.13,12.668
		C22.915,51.177,23.18,55.783,26.755,59.218"/>
	<path fill="#FFFFFF" d="M31.753,57.092l3.759-1.599c-2.011-2.242-2.03-5.144,0.426-8.115c4.703-5.687,16.679-9.468,26.753-8.445
		c3.324,0.337,6.02,1.157,7.978,2.307l3.533-1.712c-2.377-1.396-5.65-2.392-9.687-2.801c-12.232-1.242-26.775,3.349-32.484,10.256
		C28.953,50.704,29.075,54.337,31.753,57.092"/>
</g>
</svg>
